<svg width="204" height="234" viewBox="0 0 204 234" fill="none" xmlns="http://www.w3.org/2000/svg">
<g clip-path="url(#clip0_5687_544)">
<path d="M155.098 144.303C153.188 144.303 151.409 142.45 150.782 139.531C150.002 135.898 151.302 131.988 153.688 130.799C162.33 126.489 167.913 114.947 167.913 101.393C167.913 84.2272 158.749 70.2605 147.484 70.2605C146.701 70.2605 145.859 70.3546 144.835 70.5572L140.393 71.4348L139.755 64.6767C137.025 35.6975 120.459 13.8437 101.219 13.8437C85.3141 13.8437 71.1545 28.3532 65.1498 50.8095L64.0194 55.0345L61.0272 55.1177C47.2759 55.5031 36.0883 72.857 36.0883 93.8007C36.0883 109.09 41.9137 123.033 50.9284 129.321C53.2094 130.913 54.2127 135.02 53.1678 138.496C52.1229 141.972 49.4287 143.497 47.1477 141.911C34.908 133.374 27 114.491 27 93.8007C27 66.8769 40.6135 44.3229 57.9055 41.5527C65.8729 16.1669 82.5713 0 101.218 0C123.536 0 142.937 23.8442 147.968 56.4241C164.021 56.8203 177 76.8413 177 101.395C177 120.743 168.767 137.847 156.514 143.957C156.045 144.19 155.568 144.303 155.098 144.303Z" fill="#0071CE"/>
<path d="M85.6035 147.298C85.6023 147.296 85.6023 147.296 85.6011 147.296C85.5999 147.296 85.5988 147.294 85.5976 147.294H85.5964L85.5952 147.292L85.594 147.29C85.594 147.29 85.5928 147.29 85.5928 147.289H85.5916L85.5905 147.287C85.5917 147.285 85.5893 147.285 85.5893 147.285L85.5881 147.283H85.5869L85.5857 147.281C85.5869 147.283 85.5845 147.28 85.5845 147.28C85.5845 147.28 85.5822 147.278 85.581 147.278L85.5798 147.276L85.5786 147.274L85.5774 147.272C85.5739 147.27 85.575 147.27 85.5739 147.27C85.5727 147.272 85.5727 147.269 85.5715 147.269L85.5703 147.267C85.5703 147.267 85.5691 147.265 85.5679 147.265L85.5667 147.263C85.5656 147.261 85.5632 147.261 85.562 147.261C85.5608 147.261 85.5584 147.26 85.5573 147.26C85.5561 147.258 85.5561 147.258 85.5549 147.258H85.5537C85.5525 147.256 85.5513 147.256 85.5501 147.256C85.549 147.254 85.5466 147.254 85.5466 147.254H85.5454L85.543 147.252C85.5418 147.252 85.5418 147.251 85.5418 147.251H85.5407C85.4707 147.213 85.396 147.189 85.3177 147.184H85.3154H85.313H85.3106C85.3106 147.184 85.3106 147.184 85.3094 147.184H85.3083H85.3071L85.3059 147.182H85.3035H85.3011H85.2999H85.2988H85.2976H85.2952H85.294H85.2952H85.294H85.2928H85.2916H85.2905H85.2893H85.2881H85.2869H85.2857C83.3221 147.182 81.7154 144.746 81.7035 141.761V80.9305H84.7474H84.7628C85.2288 80.9613 85.5466 80.4156 85.5466 79.7597C85.5466 79.27 85.3498 78.8508 85.0699 78.6756L70.3913 63.2375C70.128 62.961 69.7806 62.961 69.5173 63.2375L54.7237 78.7966C54.4462 79.0875 54.3264 79.6206 54.426 80.1102C54.5268 80.5999 54.8233 80.9324 55.16 80.9324H58.2193L58.2217 141.778C58.2371 145.984 60.4545 149.417 63.2754 149.525C63.3075 149.531 63.3383 149.535 63.3703 149.535H85.2845H85.2976C85.4992 149.529 85.6818 149.406 85.8169 149.209C85.8169 149.209 85.8169 149.209 85.8181 149.207C85.8205 149.204 85.8229 149.2 85.8241 149.198C85.8252 149.197 85.8264 149.197 85.8276 149.193L85.8288 149.191L85.83 149.189L85.8312 149.188L85.8324 149.186L85.8335 149.184L85.8347 149.182C85.8371 149.18 85.8359 149.18 85.8371 149.179C85.8371 149.179 85.8371 149.179 85.8383 149.177L85.8395 149.175C85.8395 149.175 85.8395 149.175 85.8407 149.173C85.9735 148.964 86.0565 148.68 86.0577 148.365V148.362V148.36V148.358V148.356V148.355V148.353V148.351V148.347C86.0517 147.885 85.8679 147.48 85.6035 147.298Z" fill="#DC8327"/>
<path d="M117.307 147.298C117.307 147.298 117.306 147.296 117.305 147.296C117.304 147.296 117.303 147.294 117.302 147.294H117.3L117.299 147.292L117.298 147.29H117.297L117.296 147.289L117.294 147.287C117.296 147.285 117.293 147.285 117.292 147.285L117.291 147.283H117.29C117.288 147.283 117.288 147.281 117.288 147.281C117.286 147.283 117.286 147.28 117.286 147.28L117.284 147.278L117.283 147.276H117.281L117.28 147.274L117.279 147.272C117.278 147.27 117.277 147.27 117.277 147.27C117.275 147.272 117.275 147.269 117.273 147.269L117.272 147.267L117.271 147.265C117.271 147.265 117.27 147.265 117.268 147.263C117.267 147.261 117.265 147.261 117.264 147.261C117.262 147.261 117.26 147.26 117.259 147.26C117.258 147.258 117.258 147.258 117.256 147.258C117.255 147.258 117.255 147.258 117.254 147.256C117.254 147.256 117.253 147.256 117.252 147.254C117.248 147.252 117.251 147.252 117.249 147.252C117.246 147.252 117.248 147.252 117.247 147.251C117.247 147.251 117.246 147.249 117.245 147.249L117.243 147.247H117.242C117.172 147.209 117.098 147.186 117.019 147.18H117.017H117.016H117.013H117.012H117.011H117.01L117.009 147.178H117.006H117.004H117.003H117.002H117H116.998H116.996H116.994H116.993H116.992H116.991H116.99H116.988H116.987H116.986H116.985C115.022 147.178 113.416 144.743 113.404 141.758V94.5527H116.462C116.473 94.5509 116.481 94.5509 116.493 94.5527C116.917 94.5527 117.261 94.0287 117.261 93.3818C117.261 92.8922 117.064 92.473 116.785 92.2977L102.105 76.8596C101.841 76.5832 101.494 76.5832 101.231 76.8596L86.443 92.4169C86.1656 92.7078 86.0458 93.2409 86.1454 93.7305C86.2462 94.2202 86.5426 94.5527 86.8794 94.5527H89.9244L89.9268 141.776C89.9399 145.984 92.1608 149.419 94.9829 149.525C95.0138 149.531 95.0446 149.533 95.0754 149.533H116.99H117.003C117.204 149.527 117.387 149.404 117.522 149.207C117.522 149.207 117.522 149.207 117.523 149.206C117.526 149.202 117.53 149.198 117.529 149.197C117.53 149.195 117.532 149.195 117.533 149.191L117.534 149.189L117.535 149.188L117.536 149.186C117.536 149.186 117.537 149.186 117.537 149.184L117.539 149.182C117.54 149.182 117.54 149.18 117.54 149.18C117.543 149.179 117.542 149.179 117.542 149.177C117.542 149.177 117.542 149.177 117.543 149.175C117.543 149.175 117.543 149.175 117.545 149.173C117.545 149.173 117.545 149.173 117.546 149.171C117.679 148.962 117.762 148.678 117.763 148.364V148.36V148.358V148.356V148.355V148.353V148.351V148.349V148.346C117.756 147.885 117.572 147.48 117.307 147.298Z" fill="#F4B21B"/>
<path d="M149.094 147.298L149.092 147.296C149.091 147.296 149.09 147.294 149.088 147.294H149.087L149.086 147.292L149.085 147.29C149.084 147.29 149.084 147.29 149.084 147.289H149.082L149.081 147.287L149.08 147.285C149.08 147.285 149.079 147.285 149.079 147.283H149.078L149.077 147.281C149.075 147.283 149.075 147.279 149.074 147.279C149.075 147.278 149.073 147.278 149.072 147.278L149.071 147.276H149.069L149.068 147.274L149.067 147.272C149.063 147.27 149.065 147.27 149.065 147.27C149.063 147.272 149.063 147.269 149.061 147.269L149.06 147.267C149.061 147.265 149.059 147.265 149.058 147.265C149.058 147.265 149.056 147.265 149.056 147.263C149.055 147.261 149.053 147.261 149.052 147.261C149.05 147.261 149.048 147.26 149.047 147.26L149.045 147.258C149.045 147.258 149.043 147.258 149.042 147.256L149.04 147.254C149.036 147.252 149.036 147.252 149.037 147.252C149.034 147.252 149.034 147.252 149.035 147.251C149.034 147.251 149.034 147.249 149.034 147.249C149.033 147.249 149.031 147.247 149.031 147.247H149.03C148.96 147.209 148.886 147.186 148.807 147.18H148.806H148.804H148.8H148.799H148.798H148.797C148.795 147.178 148.795 147.178 148.794 147.178H148.792H148.79H148.788H148.787H148.786H148.784H148.781C148.781 147.178 148.781 147.178 148.78 147.178H148.779H148.778H148.777H148.775H148.774H148.773H148.778H148.777C146.814 147.178 145.207 144.743 145.195 141.758V108.169H148.246H148.262C148.695 108.153 149.046 107.654 149.046 106.999C149.046 106.509 148.849 106.09 148.569 105.914L133.889 90.4763C133.627 90.1999 133.279 90.1999 133.015 90.4763L118.222 106.034C117.944 106.325 117.824 106.858 117.924 107.347C118.025 107.837 118.321 108.169 118.658 108.169H121.709L121.711 141.776C121.727 145.984 123.946 149.421 126.767 149.525C126.798 149.531 126.829 149.533 126.86 149.533H148.774H148.787C148.989 149.527 149.171 149.404 149.307 149.207L149.308 149.206C149.31 149.202 149.314 149.198 149.314 149.197C149.315 149.195 149.316 149.195 149.317 149.191L149.318 149.189L149.32 149.188L149.321 149.186L149.322 149.184L149.323 149.182L149.324 149.18C149.328 149.179 149.326 149.179 149.327 149.177C149.327 149.177 149.327 149.177 149.328 149.175L149.329 149.173C149.329 149.173 149.329 149.173 149.33 149.171C149.463 148.962 149.546 148.678 149.547 148.364V148.36V148.358V148.356V148.355V148.353V148.351V148.349V148.346C149.543 147.885 149.358 147.48 149.094 147.298Z" fill="#F2D864"/>
</g>
<path d="M1.26 207.4C1.26 204.928 1.812 202.72 2.916 200.776C4.044 198.808 5.568 197.284 7.488 196.204C9.432 195.1 11.604 194.548 14.004 194.548C16.812 194.548 19.272 195.268 21.384 196.708C23.496 198.148 24.972 200.14 25.812 202.684H20.016C19.44 201.484 18.624 200.584 17.568 199.984C16.536 199.384 15.336 199.084 13.968 199.084C12.504 199.084 11.196 199.432 10.044 200.128C8.916 200.8 8.028 201.76 7.38 203.008C6.756 204.256 6.444 205.72 6.444 207.4C6.444 209.056 6.756 210.52 7.38 211.792C8.028 213.04 8.916 214.012 10.044 214.708C11.196 215.38 12.504 215.716 13.968 215.716C15.336 215.716 16.536 215.416 17.568 214.816C18.624 214.192 19.44 213.28 20.016 212.08H25.812C24.972 214.648 23.496 216.652 21.384 218.092C19.296 219.508 16.836 220.216 14.004 220.216C11.604 220.216 9.432 219.676 7.488 218.596C5.568 217.492 4.044 215.968 2.916 214.024C1.812 212.08 1.26 209.872 1.26 207.4ZM35.1568 193.36V220H30.1168V193.36H35.1568ZM48.9923 220.324C47.0723 220.324 45.3443 219.904 43.8083 219.064C42.2723 218.2 41.0603 216.988 40.1723 215.428C39.3083 213.868 38.8763 212.068 38.8763 210.028C38.8763 207.988 39.3203 206.188 40.2083 204.628C41.1203 203.068 42.3563 201.868 43.9163 201.028C45.4763 200.164 47.2163 199.732 49.1363 199.732C51.0563 199.732 52.7963 200.164 54.3563 201.028C55.9163 201.868 57.1403 203.068 58.0283 204.628C58.9403 206.188 59.3963 207.988 59.3963 210.028C59.3963 212.068 58.9283 213.868 57.9923 215.428C57.0803 216.988 55.8323 218.2 54.2483 219.064C52.6883 219.904 50.9363 220.324 48.9923 220.324ZM48.9923 215.932C49.9043 215.932 50.7563 215.716 51.5483 215.284C52.3643 214.828 53.0123 214.156 53.4923 213.268C53.9723 212.38 54.2123 211.3 54.2123 210.028C54.2123 208.132 53.7083 206.68 52.7003 205.672C51.7163 204.64 50.5043 204.124 49.0643 204.124C47.6243 204.124 46.4123 204.64 45.4283 205.672C44.4683 206.68 43.9883 208.132 43.9883 210.028C43.9883 211.924 44.4563 213.388 45.3923 214.42C46.3523 215.428 47.5523 215.932 48.9923 215.932ZM81.9214 200.056V220H76.8454V217.48C76.1974 218.344 75.3454 219.028 74.2894 219.532C73.2574 220.012 72.1294 220.252 70.9054 220.252C69.3454 220.252 67.9654 219.928 66.7654 219.28C65.5654 218.608 64.6174 217.636 63.9214 216.364C63.2494 215.068 62.9134 213.532 62.9134 211.756V200.056H67.9534V211.036C67.9534 212.62 68.3494 213.844 69.1414 214.708C69.9334 215.548 71.0134 215.968 72.3814 215.968C73.7734 215.968 74.8654 215.548 75.6574 214.708C76.4494 213.844 76.8454 212.62 76.8454 211.036V200.056H81.9214ZM85.5982 209.956C85.5982 207.94 85.9942 206.152 86.7862 204.592C87.6022 203.032 88.7062 201.832 90.0982 200.992C91.4902 200.152 93.0382 199.732 94.7422 199.732C96.0382 199.732 97.2742 200.02 98.4502 200.596C99.6262 201.148 100.562 201.892 101.258 202.828V193.36H106.37V220H101.258V217.048C100.634 218.032 99.7582 218.824 98.6302 219.424C97.5022 220.024 96.1942 220.324 94.7062 220.324C93.0262 220.324 91.4902 219.892 90.0982 219.028C88.7062 218.164 87.6022 216.952 86.7862 215.392C85.9942 213.808 85.5982 211.996 85.5982 209.956ZM101.294 210.028C101.294 208.804 101.054 207.76 100.574 206.896C100.094 206.008 99.4462 205.336 98.6302 204.88C97.8142 204.4 96.9382 204.16 96.0022 204.16C95.0662 204.16 94.2022 204.388 93.4102 204.844C92.6182 205.3 91.9702 205.972 91.4662 206.86C90.9862 207.724 90.7462 208.756 90.7462 209.956C90.7462 211.156 90.9862 212.212 91.4662 213.124C91.9702 214.012 92.6182 214.696 93.4102 215.176C94.2262 215.656 95.0902 215.896 96.0022 215.896C96.9382 215.896 97.8142 215.668 98.6302 215.212C99.4462 214.732 100.094 214.06 100.574 213.196C101.054 212.308 101.294 211.252 101.294 210.028ZM113.849 197.68C112.961 197.68 112.217 197.404 111.617 196.852C111.041 196.276 110.753 195.568 110.753 194.728C110.753 193.888 111.041 193.192 111.617 192.64C112.217 192.064 112.961 191.776 113.849 191.776C114.737 191.776 115.469 192.064 116.045 192.64C116.645 193.192 116.945 193.888 116.945 194.728C116.945 195.568 116.645 196.276 116.045 196.852C115.469 197.404 114.737 197.68 113.849 197.68ZM116.333 200.056V220H111.293V200.056H116.333ZM132.364 199.768C134.74 199.768 136.66 200.524 138.124 202.036C139.588 203.524 140.32 205.612 140.32 208.3V220H135.28V208.984C135.28 207.4 134.884 206.188 134.092 205.348C133.3 204.484 132.22 204.052 130.852 204.052C129.46 204.052 128.356 204.484 127.54 205.348C126.748 206.188 126.352 207.4 126.352 208.984V220H121.312V200.056H126.352V202.54C127.024 201.676 127.876 201.004 128.908 200.524C129.964 200.02 131.116 199.768 132.364 199.768ZM143.817 209.956C143.817 207.94 144.213 206.152 145.005 204.592C145.821 203.032 146.913 201.832 148.281 200.992C149.673 200.152 151.221 199.732 152.925 199.732C154.413 199.732 155.709 200.032 156.813 200.632C157.941 201.232 158.841 201.988 159.513 202.9V200.056H164.589V220H159.513V217.084C158.865 218.02 157.965 218.8 156.813 219.424C155.685 220.024 154.377 220.324 152.889 220.324C151.209 220.324 149.673 219.892 148.281 219.028C146.913 218.164 145.821 216.952 145.005 215.392C144.213 213.808 143.817 211.996 143.817 209.956ZM159.513 210.028C159.513 208.804 159.273 207.76 158.793 206.896C158.313 206.008 157.665 205.336 156.849 204.88C156.033 204.4 155.157 204.16 154.221 204.16C153.285 204.16 152.421 204.388 151.629 204.844C150.837 205.3 150.189 205.972 149.685 206.86C149.205 207.724 148.965 208.756 148.965 209.956C148.965 211.156 149.205 212.212 149.685 213.124C150.189 214.012 150.837 214.696 151.629 215.176C152.445 215.656 153.309 215.896 154.221 215.896C155.157 215.896 156.033 215.668 156.849 215.212C157.665 214.732 158.313 214.06 158.793 213.196C159.273 212.308 159.513 211.252 159.513 210.028ZM174.551 203.152C175.199 202.096 176.039 201.268 177.071 200.668C178.127 200.068 179.327 199.768 180.671 199.768V205.06H179.339C177.755 205.06 176.555 205.432 175.739 206.176C174.947 206.92 174.551 208.216 174.551 210.064V220H169.511V200.056H174.551V203.152ZM203.146 200.056L190.798 229.432H185.434L189.754 219.496L181.762 200.056H187.414L192.562 213.988L197.782 200.056H203.146Z" fill="#4C4C4C"/>
<defs>
<clipPath id="clip0_5687_544">
<rect width="150" height="150" fill="white" transform="translate(27)"/>
</clipPath>
</defs>
</svg>
