<svg width="150" height="240" viewBox="0 0 150 240" fill="none" xmlns="http://www.w3.org/2000/svg">
<path d="M40.26 213.4C40.26 210.928 40.812 208.72 41.916 206.776C43.044 204.808 44.568 203.284 46.488 202.204C48.432 201.1 50.604 200.548 53.004 200.548C55.812 200.548 58.272 201.268 60.384 202.708C62.496 204.148 63.972 206.14 64.812 208.684H59.016C58.44 207.484 57.624 206.584 56.568 205.984C55.536 205.384 54.336 205.084 52.968 205.084C51.504 205.084 50.196 205.432 49.044 206.128C47.916 206.8 47.028 207.76 46.38 209.008C45.756 210.256 45.444 211.72 45.444 213.4C45.444 215.056 45.756 216.52 46.38 217.792C47.028 219.04 47.916 220.012 49.044 220.708C50.196 221.38 51.504 221.716 52.968 221.716C54.336 221.716 55.536 221.416 56.568 220.816C57.624 220.192 58.44 219.28 59.016 218.08H64.812C63.972 220.648 62.496 222.652 60.384 224.092C58.296 225.508 55.836 226.216 53.004 226.216C50.604 226.216 48.432 225.676 46.488 224.596C44.568 223.492 43.044 221.968 41.916 220.024C40.812 218.08 40.26 215.872 40.26 213.4ZM77.7928 226.252C76.0408 226.252 74.4568 225.952 73.0408 225.352C71.6488 224.752 70.5448 223.888 69.7288 222.76C68.9128 221.632 68.4928 220.3 68.4688 218.764H73.8688C73.9408 219.796 74.3008 220.612 74.9488 221.212C75.6208 221.812 76.5328 222.112 77.6848 222.112C78.8608 222.112 79.7848 221.836 80.4568 221.284C81.1288 220.708 81.4648 219.964 81.4648 219.052C81.4648 218.308 81.2368 217.696 80.7808 217.216C80.3248 216.736 79.7488 216.364 79.0528 216.1C78.3808 215.812 77.4448 215.5 76.2448 215.164C74.6128 214.684 73.2808 214.216 72.2488 213.76C71.2408 213.28 70.3648 212.572 69.6208 211.636C68.9008 210.676 68.5408 209.404 68.5408 207.82C68.5408 206.332 68.9128 205.036 69.6568 203.932C70.4008 202.828 71.4448 201.988 72.7888 201.412C74.1328 200.812 75.6688 200.512 77.3968 200.512C79.9888 200.512 82.0888 201.148 83.6968 202.42C85.3288 203.668 86.2288 205.42 86.3968 207.676H80.8528C80.8048 206.812 80.4328 206.104 79.7368 205.552C79.0648 204.976 78.1648 204.688 77.0368 204.688C76.0528 204.688 75.2608 204.94 74.6608 205.444C74.0848 205.948 73.7968 206.68 73.7968 207.64C73.7968 208.312 74.0128 208.876 74.4448 209.332C74.9008 209.764 75.4528 210.124 76.1008 210.412C76.7728 210.676 77.7088 210.988 78.9088 211.348C80.5408 211.828 81.8728 212.308 82.9048 212.788C83.9368 213.268 84.8248 213.988 85.5688 214.948C86.3128 215.908 86.6848 217.168 86.6848 218.728C86.6848 220.072 86.3368 221.32 85.6408 222.472C84.9448 223.624 83.9248 224.548 82.5808 225.244C81.2368 225.916 79.6408 226.252 77.7928 226.252ZM99.7303 226.252C97.9783 226.252 96.3943 225.952 94.9783 225.352C93.5863 224.752 92.4823 223.888 91.6663 222.76C90.8503 221.632 90.4303 220.3 90.4063 218.764H95.8063C95.8783 219.796 96.2383 220.612 96.8863 221.212C97.5583 221.812 98.4703 222.112 99.6223 222.112C100.798 222.112 101.722 221.836 102.394 221.284C103.066 220.708 103.402 219.964 103.402 219.052C103.402 218.308 103.174 217.696 102.718 217.216C102.262 216.736 101.686 216.364 100.99 216.1C100.318 215.812 99.3823 215.5 98.1823 215.164C96.5503 214.684 95.2183 214.216 94.1863 213.76C93.1783 213.28 92.3023 212.572 91.5583 211.636C90.8383 210.676 90.4783 209.404 90.4783 207.82C90.4783 206.332 90.8503 205.036 91.5943 203.932C92.3383 202.828 93.3823 201.988 94.7263 201.412C96.0703 200.812 97.6063 200.512 99.3343 200.512C101.926 200.512 104.026 201.148 105.634 202.42C107.266 203.668 108.166 205.42 108.334 207.676H102.79C102.742 206.812 102.37 206.104 101.674 205.552C101.002 204.976 100.102 204.688 98.9743 204.688C97.9903 204.688 97.1983 204.94 96.5983 205.444C96.0223 205.948 95.7343 206.68 95.7343 207.64C95.7343 208.312 95.9503 208.876 96.3823 209.332C96.8383 209.764 97.3903 210.124 98.0383 210.412C98.7103 210.676 99.6463 210.988 100.846 211.348C102.478 211.828 103.81 212.308 104.842 212.788C105.874 213.268 106.762 213.988 107.506 214.948C108.25 215.908 108.622 217.168 108.622 218.728C108.622 220.072 108.274 221.32 107.578 222.472C106.882 223.624 105.862 224.548 104.518 225.244C103.174 225.916 101.578 226.252 99.7303 226.252Z" fill="#4C4C4C"/>
<path d="M9.375 0L21.3281 135L75 150L128.653 135.009L140.625 0H9.375Z" fill="#2196F3"/>
<path d="M115.069 44.1456L113.559 61.105L109.003 111.946L75 121.349L74.9718 121.358L40.9875 111.946L38.6156 85.3581H55.2656L56.5031 99.1488L74.9812 104.136L74.9906 104.127L93.4968 99.1394L96.0187 76.1613L37.8187 76.3206L36.1687 60.6081L97.4156 59.8863L98.6531 43.0675L34.5281 43.2456L33.45 27.5988H116.55L115.069 44.1456Z" fill="#FAFAFA"/>
</svg>
