<svg width="152" height="240" viewBox="0 0 152 240" fill="none" xmlns="http://www.w3.org/2000/svg">
<path d="M24.9026 200.872C27.5426 200.872 29.8586 201.388 31.8506 202.42C33.8666 203.452 35.4146 204.928 36.4946 206.848C37.5986 208.744 38.1506 210.952 38.1506 213.472C38.1506 215.992 37.5986 218.2 36.4946 220.096C35.4146 221.968 33.8666 223.42 31.8506 224.452C29.8586 225.484 27.5426 226 24.9026 226H16.1186V200.872H24.9026ZM24.7226 221.716C27.3626 221.716 29.4026 220.996 30.8426 219.556C32.2826 218.116 33.0026 216.088 33.0026 213.472C33.0026 210.856 32.2826 208.816 30.8426 207.352C29.4026 205.864 27.3626 205.12 24.7226 205.12H21.1586V221.716H24.7226ZM44.4793 203.68C43.5673 203.68 42.8113 203.404 42.2113 202.852C41.6353 202.276 41.3473 201.568 41.3473 200.728C41.3473 199.888 41.6353 199.192 42.2113 198.64C42.8113 198.064 43.5673 197.776 44.4793 197.776C45.3673 197.776 46.0993 198.064 46.6753 198.64C47.2513 199.192 47.5393 199.888 47.5393 200.728C47.5393 201.568 47.2513 202.276 46.6753 202.852C46.0993 203.404 45.3673 203.68 44.4793 203.68ZM46.9633 229.276C46.9633 231.484 46.4113 233.068 45.3073 234.028C44.2273 235.012 42.6673 235.504 40.6273 235.504H38.3953V231.22H39.8353C40.6033 231.22 41.1433 231.064 41.4553 230.752C41.7673 230.464 41.9233 229.984 41.9233 229.312V206.056H46.9633V229.276ZM50.6469 215.956C50.6469 213.94 51.0429 212.152 51.8349 210.592C52.6509 209.032 53.7429 207.832 55.1109 206.992C56.5029 206.152 58.0509 205.732 59.7549 205.732C61.2429 205.732 62.5389 206.032 63.6429 206.632C64.7709 207.232 65.6709 207.988 66.3429 208.9V206.056H71.4189V226H66.3429V223.084C65.6949 224.02 64.7949 224.8 63.6429 225.424C62.5149 226.024 61.2069 226.324 59.7189 226.324C58.0389 226.324 56.5029 225.892 55.1109 225.028C53.7429 224.164 52.6509 222.952 51.8349 221.392C51.0429 219.808 50.6469 217.996 50.6469 215.956ZM66.3429 216.028C66.3429 214.804 66.1029 213.76 65.6229 212.896C65.1429 212.008 64.4949 211.336 63.6789 210.88C62.8629 210.4 61.9869 210.16 61.0509 210.16C60.1149 210.16 59.2509 210.388 58.4589 210.844C57.6669 211.3 57.0189 211.972 56.5149 212.86C56.0349 213.724 55.7949 214.756 55.7949 215.956C55.7949 217.156 56.0349 218.212 56.5149 219.124C57.0189 220.012 57.6669 220.696 58.4589 221.176C59.2749 221.656 60.1389 221.896 61.0509 221.896C61.9869 221.896 62.8629 221.668 63.6789 221.212C64.4949 220.732 65.1429 220.06 65.6229 219.196C66.1029 218.308 66.3429 217.252 66.3429 216.028ZM87.3933 205.768C89.7693 205.768 91.6893 206.524 93.1533 208.036C94.6173 209.524 95.3493 211.612 95.3493 214.3V226H90.3093V214.984C90.3093 213.4 89.9133 212.188 89.1213 211.348C88.3293 210.484 87.2493 210.052 85.8813 210.052C84.4893 210.052 83.3853 210.484 82.5693 211.348C81.7773 212.188 81.3813 213.4 81.3813 214.984V226H76.3413V206.056H81.3813V208.54C82.0533 207.676 82.9053 207.004 83.9373 206.524C84.9933 206.02 86.1453 205.768 87.3933 205.768ZM107.954 205.732C109.442 205.732 110.75 206.032 111.878 206.632C113.006 207.208 113.894 207.964 114.542 208.9V206.056H119.618V226.144C119.618 227.992 119.246 229.636 118.502 231.076C117.758 232.54 116.642 233.692 115.154 234.532C113.666 235.396 111.866 235.828 109.754 235.828C106.922 235.828 104.594 235.168 102.77 233.848C100.97 232.528 99.9501 230.728 99.7101 228.448H104.714C104.978 229.36 105.542 230.08 106.406 230.608C107.294 231.16 108.362 231.436 109.61 231.436C111.074 231.436 112.262 230.992 113.174 230.104C114.086 229.24 114.542 227.92 114.542 226.144V223.048C113.894 223.984 112.994 224.764 111.842 225.388C110.714 226.012 109.418 226.324 107.954 226.324C106.274 226.324 104.738 225.892 103.346 225.028C101.954 224.164 100.85 222.952 100.034 221.392C99.2421 219.808 98.8461 217.996 98.8461 215.956C98.8461 213.94 99.2421 212.152 100.034 210.592C100.85 209.032 101.942 207.832 103.31 206.992C104.702 206.152 106.25 205.732 107.954 205.732ZM114.542 216.028C114.542 214.804 114.302 213.76 113.822 212.896C113.342 212.008 112.694 211.336 111.878 210.88C111.062 210.4 110.186 210.16 109.25 210.16C108.314 210.16 107.45 210.388 106.658 210.844C105.866 211.3 105.218 211.972 104.714 212.86C104.234 213.724 103.994 214.756 103.994 215.956C103.994 217.156 104.234 218.212 104.714 219.124C105.218 220.012 105.866 220.696 106.658 221.176C107.474 221.656 108.338 221.896 109.25 221.896C110.186 221.896 111.062 221.668 111.878 221.212C112.694 220.732 113.342 220.06 113.822 219.196C114.302 218.308 114.542 217.252 114.542 216.028ZM133.397 226.324C131.477 226.324 129.749 225.904 128.213 225.064C126.677 224.2 125.465 222.988 124.577 221.428C123.713 219.868 123.281 218.068 123.281 216.028C123.281 213.988 123.725 212.188 124.613 210.628C125.525 209.068 126.761 207.868 128.321 207.028C129.881 206.164 131.621 205.732 133.541 205.732C135.461 205.732 137.201 206.164 138.761 207.028C140.321 207.868 141.545 209.068 142.433 210.628C143.345 212.188 143.801 213.988 143.801 216.028C143.801 218.068 143.333 219.868 142.397 221.428C141.485 222.988 140.237 224.2 138.653 225.064C137.093 225.904 135.341 226.324 133.397 226.324ZM133.397 221.932C134.309 221.932 135.161 221.716 135.953 221.284C136.769 220.828 137.417 220.156 137.897 219.268C138.377 218.38 138.617 217.3 138.617 216.028C138.617 214.132 138.113 212.68 137.105 211.672C136.121 210.64 134.909 210.124 133.469 210.124C132.029 210.124 130.817 210.64 129.833 211.672C128.873 212.68 128.393 214.132 128.393 216.028C128.393 217.924 128.861 219.388 129.797 220.42C130.757 221.428 131.957 221.932 133.397 221.932Z" fill="#4C4C4C"/>
<g clip-path="url(#clip0_5687_513)">
<path d="M68.0879 0H99.6914V112.358C83.5032 114.733 71.5858 115.668 58.6922 115.668C20.0928 115.636 0 102.26 0 76.57C0 51.8176 21.313 35.7535 54.3401 35.7535C59.465 35.7535 63.3697 36.066 68.0879 37.0036V0ZM69.1954 57.2515C65.4941 56.3139 62.4436 56.0014 58.5389 56.0014C42.5541 56.0014 33.3212 63.5646 33.3212 76.8191C33.3212 89.7234 42.1474 96.8492 58.3356 96.8492C61.8335 96.8492 64.6807 96.696 69.1954 96.2272V57.2515Z" fill="#2BA977"/>
<path d="M151.372 38.7703V95.0258C151.372 114.4 149.501 123.716 144.01 131.748C138.885 139.471 132.133 144.34 118.182 149.719L88.8564 138.999C102.808 133.97 109.559 129.526 113.871 122.744C118.386 115.809 119.809 107.777 119.809 86.65V38.7703H151.372Z" fill="#2BA977"/>
<path d="M116.624 0H148.228V24.9087H116.624V0Z" fill="#2BA977"/>
</g>
<defs>
<clipPath id="clip0_5687_513">
<rect width="151.854" height="150" fill="white"/>
</clipPath>
</defs>
</svg>
