<svg width="150" height="234" viewBox="0 0 150 234" fill="none" xmlns="http://www.w3.org/2000/svg">
<g clip-path="url(#clip0_5687_556)">
<path d="M0 75C0 33.5788 33.5788 0 75 0C116.421 0 150 33.5788 150 75C150 116.421 116.421 150 75 150C33.5788 150 0 116.421 0 75Z" fill="#333333"/>
<path d="M60 120C68.2844 120 75 113.284 75 105V89.9995H60C51.7156 89.9995 45 96.7154 45 105C45 113.284 51.7156 120 60 120Z" fill="#0ACF83"/>
<path d="M45 74.9999C45 66.7155 51.7156 59.9999 60 59.9999H75V89.9999H60C51.7156 89.9999 45 83.2839 45 74.9999Z" fill="#A259FF"/>
<path d="M45 45.0002C45 36.7159 51.7156 30.0002 60 30.0002H75V60.0002H60C51.7156 60.0002 45 53.2843 45 45.0002Z" fill="#F24E1E"/>
<path d="M75 30.0002H90C98.2844 30.0002 105 36.7159 105 45.0002C105 53.2843 98.2844 60.0002 90 60.0002H75V30.0002Z" fill="#FF7262"/>
<path d="M105 74.9999C105 83.2839 98.2844 89.9999 90 89.9999C81.7156 89.9999 75 83.2839 75 74.9999C75 66.7155 81.7156 59.9999 90 59.9999C98.2844 59.9999 105 66.7155 105 74.9999Z" fill="#1ABCFE"/>
</g>
<path d="M35 194.872V198.94H24.524V205.384H32.552V209.38H24.524V220H19.484V194.872H35ZM41.1298 197.68C40.2418 197.68 39.4978 197.404 38.8978 196.852C38.3218 196.276 38.0338 195.568 38.0338 194.728C38.0338 193.888 38.3218 193.192 38.8978 192.64C39.4978 192.064 40.2418 191.776 41.1298 191.776C42.0178 191.776 42.7498 192.064 43.3258 192.64C43.9258 193.192 44.2258 193.888 44.2258 194.728C44.2258 195.568 43.9258 196.276 43.3258 196.852C42.7498 197.404 42.0178 197.68 41.1298 197.68ZM43.6138 200.056V220H38.5738V200.056H43.6138ZM56.4054 199.732C57.8934 199.732 59.2014 200.032 60.3294 200.632C61.4574 201.208 62.3454 201.964 62.9934 202.9V200.056H68.0694V220.144C68.0694 221.992 67.6974 223.636 66.9534 225.076C66.2094 226.54 65.0934 227.692 63.6054 228.532C62.1174 229.396 60.3174 229.828 58.2054 229.828C55.3734 229.828 53.0454 229.168 51.2214 227.848C49.4214 226.528 48.4014 224.728 48.1614 222.448H53.1654C53.4294 223.36 53.9934 224.08 54.8574 224.608C55.7454 225.16 56.8134 225.436 58.0614 225.436C59.5254 225.436 60.7134 224.992 61.6254 224.104C62.5374 223.24 62.9934 221.92 62.9934 220.144V217.048C62.3454 217.984 61.4454 218.764 60.2934 219.388C59.1654 220.012 57.8694 220.324 56.4054 220.324C54.7254 220.324 53.1894 219.892 51.7974 219.028C50.4054 218.164 49.3014 216.952 48.4854 215.392C47.6934 213.808 47.2974 211.996 47.2974 209.956C47.2974 207.94 47.6934 206.152 48.4854 204.592C49.3014 203.032 50.3934 201.832 51.7614 200.992C53.1534 200.152 54.7014 199.732 56.4054 199.732ZM62.9934 210.028C62.9934 208.804 62.7534 207.76 62.2734 206.896C61.7934 206.008 61.1454 205.336 60.3294 204.88C59.5134 204.4 58.6374 204.16 57.7014 204.16C56.7654 204.16 55.9014 204.388 55.1094 204.844C54.3174 205.3 53.6694 205.972 53.1654 206.86C52.6854 207.724 52.4454 208.756 52.4454 209.956C52.4454 211.156 52.6854 212.212 53.1654 213.124C53.6694 214.012 54.3174 214.696 55.1094 215.176C55.9254 215.656 56.7894 215.896 57.7014 215.896C58.6374 215.896 59.5134 215.668 60.3294 215.212C61.1454 214.732 61.7934 214.06 62.2734 213.196C62.7534 212.308 62.9934 211.252 62.9934 210.028ZM97.7598 199.768C100.208 199.768 102.176 200.524 103.664 202.036C105.176 203.524 105.932 205.612 105.932 208.3V220H100.892V208.984C100.892 207.424 100.496 206.236 99.7038 205.42C98.9118 204.58 97.8318 204.16 96.4638 204.16C95.0958 204.16 94.0038 204.58 93.1878 205.42C92.3958 206.236 91.9998 207.424 91.9998 208.984V220H86.9598V208.984C86.9598 207.424 86.5638 206.236 85.7718 205.42C84.9798 204.58 83.8998 204.16 82.5318 204.16C81.1398 204.16 80.0358 204.58 79.2198 205.42C78.4278 206.236 78.0318 207.424 78.0318 208.984V220H72.9918V200.056H78.0318V202.468C78.6798 201.628 79.5078 200.968 80.5158 200.488C81.5478 200.008 82.6758 199.768 83.8998 199.768C85.4598 199.768 86.8518 200.104 88.0758 200.776C89.2998 201.424 90.2478 202.36 90.9198 203.584C91.5678 202.432 92.5038 201.508 93.7278 200.812C94.9758 200.116 96.3198 199.768 97.7598 199.768ZM109.418 209.956C109.418 207.94 109.814 206.152 110.606 204.592C111.422 203.032 112.514 201.832 113.882 200.992C115.274 200.152 116.822 199.732 118.526 199.732C120.014 199.732 121.31 200.032 122.414 200.632C123.542 201.232 124.442 201.988 125.114 202.9V200.056H130.19V220H125.114V217.084C124.466 218.02 123.566 218.8 122.414 219.424C121.286 220.024 119.978 220.324 118.49 220.324C116.81 220.324 115.274 219.892 113.882 219.028C112.514 218.164 111.422 216.952 110.606 215.392C109.814 213.808 109.418 211.996 109.418 209.956ZM125.114 210.028C125.114 208.804 124.874 207.76 124.394 206.896C123.914 206.008 123.266 205.336 122.45 204.88C121.634 204.4 120.758 204.16 119.822 204.16C118.886 204.16 118.022 204.388 117.23 204.844C116.438 205.3 115.79 205.972 115.286 206.86C114.806 207.724 114.566 208.756 114.566 209.956C114.566 211.156 114.806 212.212 115.286 213.124C115.79 214.012 116.438 214.696 117.23 215.176C118.046 215.656 118.91 215.896 119.822 215.896C120.758 215.896 121.634 215.668 122.45 215.212C123.266 214.732 123.914 214.06 124.394 213.196C124.874 212.308 125.114 211.252 125.114 210.028Z" fill="#4C4C4C"/>
<defs>
<clipPath id="clip0_5687_556">
<rect width="150" height="150" fill="white"/>
</clipPath>
</defs>
</svg>
