<svg width="157" height="230" viewBox="0 0 157 230" fill="none" xmlns="http://www.w3.org/2000/svg">
<path d="M94.6655 54.1785L80.8034 68.1492L67.9401 40.048L74.5961 23.8876C76.2808 20.648 79.0297 20.6418 80.7145 23.8876L94.6655 54.1785Z" fill="#FFA000"/>
<path d="M80.8044 68.1487L29.0024 120.343L67.9411 40.0475L80.8044 68.1487Z" fill="#F57F17"/>
<path d="M109.827 32.8243C112.304 30.2462 114.864 31.1256 115.516 34.7785L129 119.644L84.3024 148.658C82.7381 149.594 78.596 150 78.596 150C78.596 150 74.8151 149.51 73.3741 148.644L29 120.34L109.827 32.8243Z" fill="#FFCA28"/>
<path d="M67.9411 40.0476L29.0024 120.343L46.3463 2.98895C46.985 -0.666829 48.9063 -1.01889 50.6205 2.20796L67.9411 40.0476Z" fill="#FFA000"/>
<path d="M18 190.872V194.94H7.524V201.384H15.552V205.38H7.524V216H2.484V190.872H18ZM24.1298 193.68C23.2418 193.68 22.4978 193.404 21.8978 192.852C21.3218 192.276 21.0338 191.568 21.0338 190.728C21.0338 189.888 21.3218 189.192 21.8978 188.64C22.4978 188.064 23.2418 187.776 24.1298 187.776C25.0178 187.776 25.7498 188.064 26.3258 188.64C26.9258 189.192 27.2258 189.888 27.2258 190.728C27.2258 191.568 26.9258 192.276 26.3258 192.852C25.7498 193.404 25.0178 193.68 24.1298 193.68ZM26.6138 196.056V216H21.5738V196.056H26.6138ZM36.6334 199.152C37.2814 198.096 38.1214 197.268 39.1534 196.668C40.2094 196.068 41.4094 195.768 42.7534 195.768V201.06H41.4214C39.8374 201.06 38.6374 201.432 37.8214 202.176C37.0294 202.92 36.6334 204.216 36.6334 206.064V216H31.5934V196.056H36.6334V199.152ZM64.6881 205.596C64.6881 206.316 64.6401 206.964 64.5441 207.54H49.9641C50.0841 208.98 50.5881 210.108 51.4761 210.924C52.3641 211.74 53.4561 212.148 54.7521 212.148C56.6241 212.148 57.9561 211.344 58.7481 209.736H64.1841C63.6081 211.656 62.5041 213.24 60.8721 214.488C59.2401 215.712 57.2361 216.324 54.8601 216.324C52.9401 216.324 51.2121 215.904 49.6761 215.064C48.1641 214.2 46.9761 212.988 46.1121 211.428C45.2721 209.868 44.8521 208.068 44.8521 206.028C44.8521 203.964 45.2721 202.152 46.1121 200.592C46.9521 199.032 48.1281 197.832 49.6401 196.992C51.1521 196.152 52.8921 195.732 54.8601 195.732C56.7561 195.732 58.4481 196.14 59.9361 196.956C61.4481 197.772 62.6121 198.936 63.4281 200.448C64.2681 201.936 64.6881 203.652 64.6881 205.596ZM59.4681 204.156C59.4441 202.86 58.9761 201.828 58.0641 201.06C57.1521 200.268 56.0361 199.872 54.7161 199.872C53.4681 199.872 52.4121 200.256 51.5481 201.024C50.7081 201.768 50.1921 202.812 50.0001 204.156H59.4681ZM73.4068 198.972C74.0548 198.012 74.9428 197.232 76.0708 196.632C77.2228 196.032 78.5308 195.732 79.9948 195.732C81.6988 195.732 83.2348 196.152 84.6028 196.992C85.9948 197.832 87.0868 199.032 87.8788 200.592C88.6948 202.128 89.1028 203.916 89.1028 205.956C89.1028 207.996 88.6948 209.808 87.8788 211.392C87.0868 212.952 85.9948 214.164 84.6028 215.028C83.2348 215.892 81.6988 216.324 79.9948 216.324C78.5068 216.324 77.1988 216.036 76.0708 215.46C74.9668 214.86 74.0788 214.092 73.4068 213.156V216H68.3668V189.36H73.4068V198.972ZM83.9548 205.956C83.9548 204.756 83.7028 203.724 83.1988 202.86C82.7188 201.972 82.0708 201.3 81.2548 200.844C80.4628 200.388 79.5988 200.16 78.6628 200.16C77.7508 200.16 76.8868 200.4 76.0708 200.88C75.2788 201.336 74.6308 202.008 74.1268 202.896C73.6468 203.784 73.4068 204.828 73.4068 206.028C73.4068 207.228 73.6468 208.272 74.1268 209.16C74.6308 210.048 75.2788 210.732 76.0708 211.212C76.8868 211.668 77.7508 211.896 78.6628 211.896C79.5988 211.896 80.4628 211.656 81.2548 211.176C82.0708 210.696 82.7188 210.012 83.1988 209.124C83.7028 208.236 83.9548 207.18 83.9548 205.956ZM91.4692 205.956C91.4692 203.94 91.8652 202.152 92.6572 200.592C93.4733 199.032 94.5653 197.832 95.9333 196.992C97.3253 196.152 98.8733 195.732 100.577 195.732C102.065 195.732 103.361 196.032 104.465 196.632C105.593 197.232 106.493 197.988 107.165 198.9V196.056H112.241V216H107.165V213.084C106.517 214.02 105.617 214.8 104.465 215.424C103.337 216.024 102.029 216.324 100.541 216.324C98.8613 216.324 97.3253 215.892 95.9333 215.028C94.5653 214.164 93.4733 212.952 92.6572 211.392C91.8652 209.808 91.4692 207.996 91.4692 205.956ZM107.165 206.028C107.165 204.804 106.925 203.76 106.445 202.896C105.965 202.008 105.317 201.336 104.501 200.88C103.685 200.4 102.809 200.16 101.873 200.16C100.937 200.16 100.073 200.388 99.2812 200.844C98.4893 201.3 97.8413 201.972 97.3373 202.86C96.8573 203.724 96.6173 204.756 96.6173 205.956C96.6173 207.156 96.8573 208.212 97.3373 209.124C97.8413 210.012 98.4893 210.696 99.2812 211.176C100.097 211.656 100.961 211.896 101.873 211.896C102.809 211.896 103.685 211.668 104.501 211.212C105.317 210.732 105.965 210.06 106.445 209.196C106.925 208.308 107.165 207.252 107.165 206.028ZM124.796 216.324C123.164 216.324 121.7 216.036 120.404 215.46C119.108 214.86 118.076 214.056 117.308 213.048C116.564 212.04 116.156 210.924 116.084 209.7H121.16C121.256 210.468 121.628 211.104 122.276 211.608C122.948 212.112 123.776 212.364 124.76 212.364C125.72 212.364 126.464 212.172 126.992 211.788C127.544 211.404 127.82 210.912 127.82 210.312C127.82 209.664 127.484 209.184 126.812 208.872C126.164 208.536 125.12 208.176 123.68 207.792C122.192 207.432 120.968 207.06 120.008 206.676C119.072 206.292 118.256 205.704 117.56 204.912C116.888 204.12 116.552 203.052 116.552 201.708C116.552 200.604 116.864 199.596 117.488 198.684C118.136 197.772 119.048 197.052 120.224 196.524C121.424 195.996 122.828 195.732 124.436 195.732C126.812 195.732 128.708 196.332 130.124 197.532C131.54 198.708 132.32 200.304 132.464 202.32H127.64C127.568 201.528 127.232 200.904 126.632 200.448C126.056 199.968 125.276 199.728 124.292 199.728C123.38 199.728 122.672 199.896 122.168 200.232C121.688 200.568 121.448 201.036 121.448 201.636C121.448 202.308 121.784 202.824 122.456 203.184C123.128 203.52 124.172 203.868 125.588 204.228C127.028 204.588 128.216 204.96 129.152 205.344C130.088 205.728 130.892 206.328 131.564 207.144C132.26 207.936 132.62 208.992 132.644 210.312C132.644 211.464 132.32 212.496 131.672 213.408C131.048 214.32 130.136 215.04 128.936 215.568C127.76 216.072 126.38 216.324 124.796 216.324ZM155.321 205.596C155.321 206.316 155.273 206.964 155.177 207.54H140.597C140.717 208.98 141.221 210.108 142.109 210.924C142.997 211.74 144.089 212.148 145.385 212.148C147.257 212.148 148.589 211.344 149.381 209.736H154.817C154.241 211.656 153.137 213.24 151.505 214.488C149.873 215.712 147.869 216.324 145.493 216.324C143.573 216.324 141.845 215.904 140.309 215.064C138.797 214.2 137.609 212.988 136.745 211.428C135.905 209.868 135.485 208.068 135.485 206.028C135.485 203.964 135.905 202.152 136.745 200.592C137.585 199.032 138.761 197.832 140.273 196.992C141.785 196.152 143.525 195.732 145.493 195.732C147.389 195.732 149.081 196.14 150.569 196.956C152.081 197.772 153.245 198.936 154.061 200.448C154.901 201.936 155.321 203.652 155.321 205.596ZM150.101 204.156C150.077 202.86 149.609 201.828 148.697 201.06C147.785 200.268 146.669 199.872 145.349 199.872C144.101 199.872 143.045 200.256 142.181 201.024C141.341 201.768 140.825 202.812 140.633 204.156H150.101Z" fill="#4C4C4C"/>
</svg>
