<svg width="150" height="234" viewBox="0 0 150 234" fill="none" xmlns="http://www.w3.org/2000/svg">
<path d="M89.0671 59.2828C80.0964 59.2828 75.6386 63.9656 75.6386 70.7086C75.6386 75.0492 77.8089 78.1242 80.6824 79.5316C79.275 80.8219 78.1031 81.9504 77.0472 83.0637C75.9902 84.1793 75.3457 85.357 75.3457 86.6484C75.3457 88.2328 75.9902 89.7012 77.9261 90.5191C75.8742 92.4574 74.7 93.8637 74.7 96.5039C74.7 101.136 78.7464 103.835 89.3613 103.835C99.566 103.835 105.487 100.025 105.487 93.2801C105.487 85.4836 99.5074 85.1894 89.3613 84.5426L83.6144 84.191L85.5504 81.0832C86.6039 81.3762 88.3066 81.6105 90.1851 81.6105C97.5726 81.6105 102.675 77.7996 102.675 71.2887C102.675 68.591 101.343 66.7148 100.288 65.3648L105.469 64.9547V59.7656H94.4636C93.116 59.7656 91.589 59.2828 89.0671 59.2828ZM91.7062 92.6941C94.5234 92.8699 96.7523 92.9871 96.7523 94.8668C96.7523 98.0297 92.1175 98.2676 88.7179 98.2676C84.6117 98.2676 81.6211 97.5621 81.6211 95.2172C81.6211 94.043 82.3828 93.0469 83.1468 92.1094L91.7062 92.6941ZM89.4222 75.4535C85.5504 75.4535 83.9672 73.4578 83.9672 70.5855C83.9672 66.7734 86.3707 65.189 89.5968 65.189C92.939 65.189 94.9336 67.0078 94.9336 70.4672C94.9336 73.5187 92.7047 75.4535 89.4222 75.4535ZM116.218 54.709C119.619 54.709 121.555 52.773 121.555 49.4285C121.555 46.0887 119.619 44.2687 116.218 44.2687C112.875 44.2687 110.939 46.0887 110.939 49.4285C110.939 52.7719 112.875 54.709 116.218 54.709ZM120.703 83.7363V59.7656H109.297L108.653 64.3312L111.778 65.3555C112.366 65.5301 112.5 65.8512 112.5 66.4957V83.7363C112.5 84.6176 112.005 84.7934 111.184 84.9117L107.812 85.3219V90.2344H125.391V85.3219L122.02 84.9117C121.138 84.7934 120.703 84.6773 120.703 83.7363ZM146.974 82.5176C145.566 83.0449 143.89 83.4539 142.246 83.4539C139.08 83.4539 138.281 82.1062 138.281 78.6457V64.4531H146.484V58.5937H138.705C138.236 58.5937 138.281 58.5902 138.281 58.1801V50.3906H132.664C132.02 56.25 128.906 58.8234 124.219 59.4117V64.4531H128.91C129.38 64.4531 128.906 64.8668 128.906 65.2172V80.5816C128.906 87.2109 131.782 90.0246 138.759 90.0246C142.104 90.0246 145.916 88.9101 148.439 87.6797L146.974 82.5176ZM34.8492 45.4758C33.3058 43.9312 30.8004 43.9312 29.2558 45.4758L23.6883 51.0433L30.7511 58.1062C32.3929 57.5519 34.275 57.9234 35.584 59.2324C36.8988 60.5484 37.2679 62.4469 36.6996 64.0945L43.507 70.9019C45.1547 70.3348 47.0543 70.7016 48.3691 72.0187C50.209 73.8562 50.209 76.8351 48.3691 78.6738C46.5304 80.5137 43.5527 80.5137 41.7129 78.6738C40.3301 77.2898 39.8097 75.259 40.5117 73.5551L33.9843 67.207V83.9144C33.9843 84.1359 35.0332 84.4312 35.407 84.8039C37.2445 86.6414 37.3336 89.6203 35.4949 91.4613C33.6562 93.2988 30.7207 93.2988 28.8832 91.4613C27.0457 89.6203 27.0679 86.6426 28.9066 84.8039C29.3613 84.3504 29.2968 84.007 30.4687 83.7773V66.9152C29.2968 66.6855 29.3824 66.3445 28.9289 65.8887C27.5367 64.4965 27.2015 62.4539 27.9152 60.7441L20.9519 53.7797L2.56638 72.1652C1.02068 73.7109 1.02068 76.2164 2.56638 77.7598L29.3812 104.573C30.9246 106.117 33.4289 106.117 34.9746 104.573L61.664 77.8828C63.2074 76.3383 63.2074 73.8328 61.664 72.2883L34.8492 45.4758Z" fill="#F34F29"/>
<path d="M68.98 202.432C68.404 201.376 67.612 200.572 66.604 200.02C65.596 199.468 64.42 199.192 63.076 199.192C61.588 199.192 60.268 199.528 59.116 200.2C57.964 200.872 57.064 201.832 56.416 203.08C55.768 204.328 55.444 205.768 55.444 207.4C55.444 209.08 55.768 210.544 56.416 211.792C57.088 213.04 58.012 214 59.188 214.672C60.364 215.344 61.732 215.68 63.292 215.68C65.212 215.68 66.784 215.176 68.008 214.168C69.232 213.136 70.036 211.708 70.42 209.884H61.78V206.032H75.388V210.424C75.052 212.176 74.332 213.796 73.228 215.284C72.124 216.772 70.696 217.972 68.944 218.884C67.216 219.772 65.272 220.216 63.112 220.216C60.688 220.216 58.492 219.676 56.524 218.596C54.58 217.492 53.044 215.968 51.916 214.024C50.812 212.08 50.26 209.872 50.26 207.4C50.26 204.928 50.812 202.72 51.916 200.776C53.044 198.808 54.58 197.284 56.524 196.204C58.492 195.1 60.676 194.548 63.076 194.548C65.908 194.548 68.368 195.244 70.456 196.636C72.544 198.004 73.984 199.936 74.776 202.432H68.98ZM81.6728 197.68C80.7848 197.68 80.0408 197.404 79.4408 196.852C78.8648 196.276 78.5768 195.568 78.5768 194.728C78.5768 193.888 78.8648 193.192 79.4408 192.64C80.0408 192.064 80.7848 191.776 81.6728 191.776C82.5608 191.776 83.2928 192.064 83.8688 192.64C84.4688 193.192 84.7688 193.888 84.7688 194.728C84.7688 195.568 84.4688 196.276 83.8688 196.852C83.2928 197.404 82.5608 197.68 81.6728 197.68ZM84.1568 200.056V220H79.1168V200.056H84.1568ZM95.0043 204.196V213.844C95.0043 214.516 95.1603 215.008 95.4723 215.32C95.8083 215.608 96.3603 215.752 97.1283 215.752H99.4683V220H96.3003C92.0523 220 89.9283 217.936 89.9283 213.808V204.196H87.5523V200.056H89.9283V195.124H95.0043V200.056H99.4683V204.196H95.0043Z" fill="#4C4C4C"/>
</svg>
