<svg width="248" height="219" viewBox="0 0 248 219" fill="none" xmlns="http://www.w3.org/2000/svg">
<path d="M144.21 33.067H148.72L161.749 20.078L162.417 14.5826C138.197 -6.7327 101.115 -4.40134 79.7352 19.7449C73.722 26.406 69.5462 34.3992 67.0406 43.0586C68.5439 42.3924 70.0473 42.3924 71.5506 42.7255L97.6078 38.3958C97.6078 38.3958 98.944 36.231 99.6122 36.3975C111.304 23.7415 130.847 22.2428 144.21 33.067Z" fill="#EA4335"/>
<path d="M180.456 43.0588C177.45 32.068 171.269 22.243 162.751 14.5828L144.377 32.9007C152.061 39.2287 156.571 48.7206 156.236 58.5457V61.7097C165.256 61.7097 172.439 69.0368 172.439 77.8627C172.439 86.6885 165.089 94.0157 156.236 94.0157H123.832L120.658 97.3462V116.83L123.832 119.994H156.403C179.788 120.16 198.83 101.343 198.997 78.0292C199.164 64.2076 192.149 51.052 180.456 43.0588Z" fill="#4285F4"/>
<path d="M91.0935 119.993H123.665V94.0154H91.0935C88.755 94.0154 86.4165 93.5158 84.4121 92.5167L79.9022 94.0154L66.7066 107.004L65.5374 111.501C72.8868 117.163 81.9066 120.16 91.0935 119.993Z" fill="#34A853"/>
<path d="M91.0935 35.7315C67.7088 35.898 48.8341 54.882 49.0011 78.1956C49.0011 91.1846 55.1813 103.508 65.5374 111.334L84.4122 92.5169C76.2275 88.8533 72.5528 79.1948 76.2275 71.035C79.9023 62.8752 89.5902 59.2117 97.7749 62.8752C101.45 64.5405 104.289 67.3714 105.959 71.035L124.834 52.2176C116.817 41.893 104.289 35.7315 91.0935 35.7315Z" fill="#FBBC05"/>
<path d="M19.98 187.432C19.404 186.376 18.612 185.572 17.604 185.02C16.596 184.468 15.42 184.192 14.076 184.192C12.588 184.192 11.268 184.528 10.116 185.2C8.964 185.872 8.064 186.832 7.416 188.08C6.768 189.328 6.444 190.768 6.444 192.4C6.444 194.08 6.768 195.544 7.416 196.792C8.088 198.04 9.012 199 10.188 199.672C11.364 200.344 12.732 200.68 14.292 200.68C16.212 200.68 17.784 200.176 19.008 199.168C20.232 198.136 21.036 196.708 21.42 194.884H12.78V191.032H26.388V195.424C26.052 197.176 25.332 198.796 24.228 200.284C23.124 201.772 21.696 202.972 19.944 203.884C18.216 204.772 16.272 205.216 14.112 205.216C11.688 205.216 9.492 204.676 7.524 203.596C5.58 202.492 4.044 200.968 2.916 199.024C1.812 197.08 1.26 194.872 1.26 192.4C1.26 189.928 1.812 187.72 2.916 185.776C4.044 183.808 5.58 182.284 7.524 181.204C9.492 180.1 11.676 179.548 14.076 179.548C16.908 179.548 19.368 180.244 21.456 181.636C23.544 183.004 24.984 184.936 25.776 187.432H19.98ZM38.9728 205.324C37.0528 205.324 35.3248 204.904 33.7888 204.064C32.2528 203.2 31.0408 201.988 30.1528 200.428C29.2888 198.868 28.8568 197.068 28.8568 195.028C28.8568 192.988 29.3008 191.188 30.1888 189.628C31.1008 188.068 32.3368 186.868 33.8968 186.028C35.4568 185.164 37.1968 184.732 39.1168 184.732C41.0368 184.732 42.7768 185.164 44.3368 186.028C45.8968 186.868 47.1208 188.068 48.0088 189.628C48.9208 191.188 49.3768 192.988 49.3768 195.028C49.3768 197.068 48.9088 198.868 47.9728 200.428C47.0608 201.988 45.8128 203.2 44.2288 204.064C42.6688 204.904 40.9168 205.324 38.9728 205.324ZM38.9728 200.932C39.8848 200.932 40.7368 200.716 41.5288 200.284C42.3448 199.828 42.9928 199.156 43.4728 198.268C43.9528 197.38 44.1928 196.3 44.1928 195.028C44.1928 193.132 43.6888 191.68 42.6808 190.672C41.6968 189.64 40.4848 189.124 39.0448 189.124C37.6048 189.124 36.3928 189.64 35.4088 190.672C34.4488 191.68 33.9688 193.132 33.9688 195.028C33.9688 196.924 34.4368 198.388 35.3728 199.42C36.3328 200.428 37.5328 200.932 38.9728 200.932ZM61.9298 205.324C60.0098 205.324 58.2818 204.904 56.7458 204.064C55.2098 203.2 53.9978 201.988 53.1098 200.428C52.2458 198.868 51.8138 197.068 51.8138 195.028C51.8138 192.988 52.2578 191.188 53.1458 189.628C54.0578 188.068 55.2938 186.868 56.8538 186.028C58.4138 185.164 60.1538 184.732 62.0738 184.732C63.9938 184.732 65.7338 185.164 67.2938 186.028C68.8538 186.868 70.0778 188.068 70.9658 189.628C71.8778 191.188 72.3338 192.988 72.3338 195.028C72.3338 197.068 71.8658 198.868 70.9298 200.428C70.0178 201.988 68.7698 203.2 67.1858 204.064C65.6258 204.904 63.8738 205.324 61.9298 205.324ZM61.9298 200.932C62.8418 200.932 63.6938 200.716 64.4858 200.284C65.3018 199.828 65.9498 199.156 66.4298 198.268C66.9098 197.38 67.1498 196.3 67.1498 195.028C67.1498 193.132 66.6458 191.68 65.6378 190.672C64.6538 189.64 63.4418 189.124 62.0018 189.124C60.5618 189.124 59.3498 189.64 58.3658 190.672C57.4058 191.68 56.9258 193.132 56.9258 195.028C56.9258 196.924 57.3938 198.388 58.3298 199.42C59.2898 200.428 60.4898 200.932 61.9298 200.932ZM83.8429 184.732C85.3309 184.732 86.6389 185.032 87.7669 185.632C88.8949 186.208 89.7829 186.964 90.4309 187.9V185.056H95.5069V205.144C95.5069 206.992 95.1349 208.636 94.3909 210.076C93.6469 211.54 92.5309 212.692 91.0429 213.532C89.5549 214.396 87.7549 214.828 85.6429 214.828C82.8109 214.828 80.4829 214.168 78.6589 212.848C76.8589 211.528 75.8389 209.728 75.5989 207.448H80.6029C80.8669 208.36 81.4309 209.08 82.2949 209.608C83.1829 210.16 84.2509 210.436 85.4989 210.436C86.9629 210.436 88.1509 209.992 89.0629 209.104C89.9749 208.24 90.4309 206.92 90.4309 205.144V202.048C89.7829 202.984 88.8829 203.764 87.7309 204.388C86.6029 205.012 85.3069 205.324 83.8429 205.324C82.1629 205.324 80.6269 204.892 79.2349 204.028C77.8429 203.164 76.7389 201.952 75.9229 200.392C75.1309 198.808 74.7349 196.996 74.7349 194.956C74.7349 192.94 75.1309 191.152 75.9229 189.592C76.7389 188.032 77.8309 186.832 79.1989 185.992C80.5909 185.152 82.1389 184.732 83.8429 184.732ZM90.4309 195.028C90.4309 193.804 90.1909 192.76 89.7109 191.896C89.2309 191.008 88.5829 190.336 87.7669 189.88C86.9509 189.4 86.0749 189.16 85.1389 189.16C84.2029 189.16 83.3389 189.388 82.5469 189.844C81.7549 190.3 81.1069 190.972 80.6029 191.86C80.1229 192.724 79.8829 193.756 79.8829 194.956C79.8829 196.156 80.1229 197.212 80.6029 198.124C81.1069 199.012 81.7549 199.696 82.5469 200.176C83.3629 200.656 84.2269 200.896 85.1389 200.896C86.0749 200.896 86.9509 200.668 87.7669 200.212C88.5829 199.732 89.2309 199.06 89.7109 198.196C90.1909 197.308 90.4309 196.252 90.4309 195.028ZM105.469 178.36V205H100.429V178.36H105.469ZM128.989 194.596C128.989 195.316 128.941 195.964 128.845 196.54H114.265C114.385 197.98 114.889 199.108 115.777 199.924C116.665 200.74 117.757 201.148 119.053 201.148C120.925 201.148 122.257 200.344 123.049 198.736H128.485C127.909 200.656 126.805 202.24 125.173 203.488C123.541 204.712 121.537 205.324 119.161 205.324C117.241 205.324 115.513 204.904 113.977 204.064C112.465 203.2 111.277 201.988 110.413 200.428C109.573 198.868 109.153 197.068 109.153 195.028C109.153 192.964 109.573 191.152 110.413 189.592C111.253 188.032 112.429 186.832 113.941 185.992C115.453 185.152 117.193 184.732 119.161 184.732C121.057 184.732 122.749 185.14 124.237 185.956C125.749 186.772 126.913 187.936 127.729 189.448C128.569 190.936 128.989 192.652 128.989 194.596ZM123.769 193.156C123.745 191.86 123.277 190.828 122.365 190.06C121.453 189.268 120.337 188.872 119.017 188.872C117.769 188.872 116.713 189.256 115.849 190.024C115.009 190.768 114.493 191.812 114.301 193.156H123.769ZM140.022 192.4C140.022 189.928 140.574 187.72 141.678 185.776C142.806 183.808 144.33 182.284 146.25 181.204C148.194 180.1 150.366 179.548 152.766 179.548C155.574 179.548 158.034 180.268 160.146 181.708C162.258 183.148 163.734 185.14 164.574 187.684H158.778C158.202 186.484 157.386 185.584 156.33 184.984C155.298 184.384 154.098 184.084 152.73 184.084C151.266 184.084 149.958 184.432 148.806 185.128C147.678 185.8 146.79 186.76 146.142 188.008C145.518 189.256 145.206 190.72 145.206 192.4C145.206 194.056 145.518 195.52 146.142 196.792C146.79 198.04 147.678 199.012 148.806 199.708C149.958 200.38 151.266 200.716 152.73 200.716C154.098 200.716 155.298 200.416 156.33 199.816C157.386 199.192 158.202 198.28 158.778 197.08H164.574C163.734 199.648 162.258 201.652 160.146 203.092C158.058 204.508 155.598 205.216 152.766 205.216C150.366 205.216 148.194 204.676 146.25 203.596C144.33 202.492 142.806 200.968 141.678 199.024C140.574 197.08 140.022 194.872 140.022 192.4ZM173.919 178.36V205H168.879V178.36H173.919ZM187.754 205.324C185.834 205.324 184.106 204.904 182.57 204.064C181.034 203.2 179.822 201.988 178.934 200.428C178.07 198.868 177.638 197.068 177.638 195.028C177.638 192.988 178.082 191.188 178.97 189.628C179.882 188.068 181.118 186.868 182.678 186.028C184.238 185.164 185.978 184.732 187.898 184.732C189.818 184.732 191.558 185.164 193.118 186.028C194.678 186.868 195.902 188.068 196.79 189.628C197.702 191.188 198.158 192.988 198.158 195.028C198.158 197.068 197.69 198.868 196.754 200.428C195.842 201.988 194.594 203.2 193.01 204.064C191.45 204.904 189.698 205.324 187.754 205.324ZM187.754 200.932C188.666 200.932 189.518 200.716 190.31 200.284C191.126 199.828 191.774 199.156 192.254 198.268C192.734 197.38 192.974 196.3 192.974 195.028C192.974 193.132 192.47 191.68 191.462 190.672C190.478 189.64 189.266 189.124 187.826 189.124C186.386 189.124 185.174 189.64 184.19 190.672C183.23 191.68 182.75 193.132 182.75 195.028C182.75 196.924 183.218 198.388 184.154 199.42C185.114 200.428 186.314 200.932 187.754 200.932ZM220.683 185.056V205H215.607V202.48C214.959 203.344 214.107 204.028 213.051 204.532C212.019 205.012 210.891 205.252 209.667 205.252C208.107 205.252 206.727 204.928 205.527 204.28C204.327 203.608 203.379 202.636 202.683 201.364C202.011 200.068 201.675 198.532 201.675 196.756V185.056H206.715V196.036C206.715 197.62 207.111 198.844 207.903 199.708C208.695 200.548 209.775 200.968 211.143 200.968C212.535 200.968 213.627 200.548 214.419 199.708C215.211 198.844 215.607 197.62 215.607 196.036V185.056H220.683ZM224.36 194.956C224.36 192.94 224.756 191.152 225.548 189.592C226.364 188.032 227.468 186.832 228.86 185.992C230.252 185.152 231.8 184.732 233.504 184.732C234.8 184.732 236.036 185.02 237.212 185.596C238.388 186.148 239.324 186.892 240.02 187.828V178.36H245.132V205H240.02V202.048C239.396 203.032 238.52 203.824 237.392 204.424C236.264 205.024 234.956 205.324 233.468 205.324C231.788 205.324 230.252 204.892 228.86 204.028C227.468 203.164 226.364 201.952 225.548 200.392C224.756 198.808 224.36 196.996 224.36 194.956ZM240.056 195.028C240.056 193.804 239.816 192.76 239.336 191.896C238.856 191.008 238.208 190.336 237.392 189.88C236.576 189.4 235.7 189.16 234.764 189.16C233.828 189.16 232.964 189.388 232.172 189.844C231.38 190.3 230.732 190.972 230.228 191.86C229.748 192.724 229.508 193.756 229.508 194.956C229.508 196.156 229.748 197.212 230.228 198.124C230.732 199.012 231.38 199.696 232.172 200.176C232.988 200.656 233.852 200.896 234.764 200.896C235.7 200.896 236.576 200.668 237.392 200.212C238.208 199.732 238.856 199.06 239.336 198.196C239.816 197.308 240.056 196.252 240.056 195.028Z" fill="#4C4C4C"/>
</svg>
