<svg width="150" height="240" viewBox="0 0 150 240" fill="none" xmlns="http://www.w3.org/2000/svg">
<path d="M50.328 200.872V226H45.288V215.308H34.524V226H29.484V200.872H34.524V211.204H45.288V200.872H50.328ZM72.3887 200.872V204.94H65.6927V226H60.6527V204.94H53.9567V200.872H72.3887ZM103.462 200.872V226H98.422V209.656L91.69 226H87.874L81.106 209.656V226H76.066V200.872H81.79L89.782 219.556L97.774 200.872H103.462ZM113.485 222.004H121.765V226H108.445V200.872H113.485V222.004Z" fill="#4C4C4C"/>
<path d="M20.8008 134.766L8.78906 0H140.918L128.906 134.766L74.707 150" fill="#E34F26"/>
<path d="M75 138.281L118.652 126.27L128.906 10.8398H75" fill="#EF652A"/>
<path d="M75 60.9375H53.0273L51.5625 43.9453H75V27.5391H33.3984L37.793 77.6367H75V60.9375ZM74.707 104.004L56.25 99.0234L55.0781 85.8398H38.6719L40.7227 111.914L74.707 121.289V104.004Z" fill="#EBEBEB"/>
<path d="M74.707 60.9375V77.6367H95.2148L93.1641 99.0234L74.707 104.004V121.289L108.691 111.914L113.379 60.9375H74.707ZM74.707 27.5391V43.9453H114.844L116.309 27.5391H74.707Z" fill="white"/>
</svg>
