<svg width="198" height="240" viewBox="0 0 198 240" fill="none" xmlns="http://www.w3.org/2000/svg">
<path d="M17.136 200.872V218.512C17.136 220.96 16.428 222.868 15.012 224.236C13.596 225.58 11.7 226.252 9.324 226.252C6.924 226.252 4.98 225.556 3.492 224.164C2.028 222.772 1.296 220.828 1.296 218.332H6.336C6.36 219.412 6.612 220.252 7.092 220.852C7.596 221.452 8.316 221.752 9.252 221.752C10.164 221.752 10.86 221.464 11.34 220.888C11.82 220.312 12.06 219.52 12.06 218.512V200.872H17.136ZM21.7192 215.956C21.7192 213.94 22.1152 212.152 22.9072 210.592C23.7233 209.032 24.8153 207.832 26.1833 206.992C27.5753 206.152 29.1233 205.732 30.8273 205.732C32.3153 205.732 33.6113 206.032 34.7153 206.632C35.8433 207.232 36.7433 207.988 37.4153 208.9V206.056H42.4913V226H37.4153V223.084C36.7673 224.02 35.8673 224.8 34.7153 225.424C33.5873 226.024 32.2793 226.324 30.7913 226.324C29.1113 226.324 27.5753 225.892 26.1833 225.028C24.8153 224.164 23.7233 222.952 22.9072 221.392C22.1152 219.808 21.7192 217.996 21.7192 215.956ZM37.4153 216.028C37.4153 214.804 37.1753 213.76 36.6953 212.896C36.2153 212.008 35.5673 211.336 34.7513 210.88C33.9353 210.4 33.0593 210.16 32.1233 210.16C31.1873 210.16 30.3233 210.388 29.5312 210.844C28.7393 211.3 28.0913 211.972 27.5873 212.86C27.1073 213.724 26.8673 214.756 26.8673 215.956C26.8673 217.156 27.1073 218.212 27.5873 219.124C28.0913 220.012 28.7393 220.696 29.5312 221.176C30.3473 221.656 31.2113 221.896 32.1233 221.896C33.0593 221.896 33.9353 221.668 34.7513 221.212C35.5673 220.732 36.2153 220.06 36.6953 219.196C37.1753 218.308 37.4153 217.252 37.4153 216.028ZM55.7297 221.356L60.7697 206.056H66.1337L58.7537 226H52.6337L45.2897 206.056H50.6897L55.7297 221.356ZM67.6685 215.956C67.6685 213.94 68.0645 212.152 68.8565 210.592C69.6725 209.032 70.7645 207.832 72.1325 206.992C73.5245 206.152 75.0725 205.732 76.7765 205.732C78.2645 205.732 79.5605 206.032 80.6645 206.632C81.7925 207.232 82.6925 207.988 83.3645 208.9V206.056H88.4405V226H83.3645V223.084C82.7165 224.02 81.8165 224.8 80.6645 225.424C79.5365 226.024 78.2285 226.324 76.7405 226.324C75.0605 226.324 73.5245 225.892 72.1325 225.028C70.7645 224.164 69.6725 222.952 68.8565 221.392C68.0645 219.808 67.6685 217.996 67.6685 215.956ZM83.3645 216.028C83.3645 214.804 83.1245 213.76 82.6445 212.896C82.1645 212.008 81.5165 211.336 80.7005 210.88C79.8845 210.4 79.0085 210.16 78.0725 210.16C77.1365 210.16 76.2725 210.388 75.4805 210.844C74.6885 211.3 74.0405 211.972 73.5365 212.86C73.0565 213.724 72.8165 214.756 72.8165 215.956C72.8165 217.156 73.0565 218.212 73.5365 219.124C74.0405 220.012 74.6885 220.696 75.4805 221.176C76.2965 221.656 77.1605 221.896 78.0725 221.896C79.0085 221.896 79.8845 221.668 80.7005 221.212C81.5165 220.732 82.1645 220.06 82.6445 219.196C83.1245 218.308 83.3645 217.252 83.3645 216.028ZM102.039 226.252C100.287 226.252 98.7029 225.952 97.2869 225.352C95.8949 224.752 94.7909 223.888 93.9749 222.76C93.1589 221.632 92.7389 220.3 92.7149 218.764H98.1149C98.1869 219.796 98.5469 220.612 99.1949 221.212C99.8669 221.812 100.779 222.112 101.931 222.112C103.107 222.112 104.031 221.836 104.703 221.284C105.375 220.708 105.711 219.964 105.711 219.052C105.711 218.308 105.483 217.696 105.027 217.216C104.571 216.736 103.995 216.364 103.299 216.1C102.627 215.812 101.691 215.5 100.491 215.164C98.8589 214.684 97.5269 214.216 96.4949 213.76C95.4869 213.28 94.6109 212.572 93.8669 211.636C93.1469 210.676 92.7869 209.404 92.7869 207.82C92.7869 206.332 93.1589 205.036 93.9029 203.932C94.6469 202.828 95.6909 201.988 97.0349 201.412C98.3789 200.812 99.9149 200.512 101.643 200.512C104.235 200.512 106.335 201.148 107.943 202.42C109.575 203.668 110.475 205.42 110.643 207.676H105.099C105.051 206.812 104.679 206.104 103.983 205.552C103.311 204.976 102.411 204.688 101.283 204.688C100.299 204.688 99.5069 204.94 98.9069 205.444C98.3309 205.948 98.0429 206.68 98.0429 207.64C98.0429 208.312 98.2589 208.876 98.6909 209.332C99.1469 209.764 99.6989 210.124 100.347 210.412C101.019 210.676 101.955 210.988 103.155 211.348C104.787 211.828 106.119 212.308 107.151 212.788C108.183 213.268 109.071 213.988 109.815 214.948C110.559 215.908 110.931 217.168 110.931 218.728C110.931 220.072 110.583 221.32 109.887 222.472C109.191 223.624 108.171 224.548 106.827 225.244C105.483 225.916 103.887 226.252 102.039 226.252ZM114.004 216.028C114.004 213.964 114.424 212.164 115.264 210.628C116.104 209.068 117.268 207.868 118.756 207.028C120.244 206.164 121.948 205.732 123.868 205.732C126.34 205.732 128.38 206.356 129.988 207.604C131.62 208.828 132.712 210.556 133.264 212.788H127.828C127.54 211.924 127.048 211.252 126.352 210.772C125.68 210.268 124.84 210.016 123.832 210.016C122.392 210.016 121.252 210.544 120.412 211.6C119.572 212.632 119.152 214.108 119.152 216.028C119.152 217.924 119.572 219.4 120.412 220.456C121.252 221.488 122.392 222.004 123.832 222.004C125.872 222.004 127.204 221.092 127.828 219.268H133.264C132.712 221.428 131.62 223.144 129.988 224.416C128.356 225.688 126.316 226.324 123.868 226.324C121.948 226.324 120.244 225.904 118.756 225.064C117.268 224.2 116.104 223 115.264 221.464C114.424 219.904 114.004 218.092 114.004 216.028ZM141.997 209.152C142.645 208.096 143.485 207.268 144.517 206.668C145.573 206.068 146.773 205.768 148.117 205.768V211.06H146.785C145.201 211.06 144.001 211.432 143.185 212.176C142.393 212.92 141.997 214.216 141.997 216.064V226H136.957V206.056H141.997V209.152ZM154.067 203.68C153.179 203.68 152.435 203.404 151.835 202.852C151.259 202.276 150.971 201.568 150.971 200.728C150.971 199.888 151.259 199.192 151.835 198.64C152.435 198.064 153.179 197.776 154.067 197.776C154.955 197.776 155.687 198.064 156.263 198.64C156.863 199.192 157.163 199.888 157.163 200.728C157.163 201.568 156.863 202.276 156.263 202.852C155.687 203.404 154.955 203.68 154.067 203.68ZM156.551 206.056V226H151.511V206.056H156.551ZM166.571 208.936C167.219 208.024 168.107 207.268 169.235 206.668C170.387 206.044 171.695 205.732 173.159 205.732C174.863 205.732 176.399 206.152 177.767 206.992C179.159 207.832 180.251 209.032 181.043 210.592C181.859 212.128 182.267 213.916 182.267 215.956C182.267 217.996 181.859 219.808 181.043 221.392C180.251 222.952 179.159 224.164 177.767 225.028C176.399 225.892 174.863 226.324 173.159 226.324C171.695 226.324 170.399 226.024 169.271 225.424C168.167 224.824 167.267 224.068 166.571 223.156V235.504H161.531V206.056H166.571V208.936ZM177.119 215.956C177.119 214.756 176.867 213.724 176.363 212.86C175.883 211.972 175.235 211.3 174.419 210.844C173.627 210.388 172.763 210.16 171.827 210.16C170.915 210.16 170.051 210.4 169.235 210.88C168.443 211.336 167.795 212.008 167.291 212.896C166.811 213.784 166.571 214.828 166.571 216.028C166.571 217.228 166.811 218.272 167.291 219.16C167.795 220.048 168.443 220.732 169.235 221.212C170.051 221.668 170.915 221.896 171.827 221.896C172.763 221.896 173.627 221.656 174.419 221.176C175.235 220.696 175.883 220.012 176.363 219.124C176.867 218.236 177.119 217.18 177.119 215.956ZM191.797 210.196V219.844C191.797 220.516 191.953 221.008 192.265 221.32C192.601 221.608 193.153 221.752 193.921 221.752H196.261V226H193.093C188.845 226 186.721 223.936 186.721 219.808V210.196H184.345V206.056H186.721V201.124H191.797V206.056H196.261V210.196H191.797Z" fill="#4C4C4C"/>
<g clip-path="url(#clip0_5687_489)">
<path d="M24 0H174V150H24V0Z" fill="#F7DF1E"/>
<path d="M63.4406 125.351L74.9192 118.404C77.134 122.33 79.1485 125.653 83.9807 125.653C88.6125 125.653 91.5334 123.841 91.5334 116.793V68.8647H105.629V116.992C105.629 131.592 97.0711 138.238 84.5848 138.238C73.3084 138.238 66.7629 132.398 63.4401 125.35L63.4406 125.351ZM113.286 123.84L124.763 117.195C127.785 122.129 131.712 125.754 138.659 125.754C144.5 125.754 148.224 122.834 148.224 118.806C148.224 113.973 144.398 112.261 137.954 109.443L134.43 107.931C124.26 103.603 117.514 98.1651 117.514 86.6866C117.514 76.1139 125.569 68.0585 138.156 68.0585C147.117 68.0585 153.561 71.1803 158.193 79.336L147.217 86.3848C144.8 82.0553 142.183 80.3438 138.155 80.3438C134.027 80.3438 131.409 82.9618 131.409 86.3848C131.409 90.6135 134.027 92.3262 140.068 94.9442L143.592 96.4542C155.574 101.59 162.32 106.825 162.32 118.605C162.32 131.293 152.352 138.24 138.96 138.24C125.871 138.24 117.413 131.997 113.285 123.841" fill="black"/>
</g>
<defs>
<clipPath id="clip0_5687_489">
<rect width="150" height="150" fill="white" transform="translate(24)"/>
</clipPath>
</defs>
</svg>
