<svg width="280" height="300" viewBox="0 0 280 300" fill="none" xmlns="http://www.w3.org/2000/svg">
<mask id="mask0_5687_412" style="mask-type:alpha" maskUnits="userSpaceOnUse" x="1" y="26" width="279" height="275">
<path d="M140.387 300C217.351 300 279.742 238.794 279.742 163.291C279.742 87.7892 217.351 26.5825 140.387 26.5825C63.4236 26.5825 1.03235 87.7892 1.03235 163.291C1.03235 238.794 63.4236 300 140.387 300Z" fill="white"/>
</mask>
<g mask="url(#mask0_5687_412)">
<path d="M140.387 300C217.351 300 279.742 238.794 279.742 163.291C279.742 87.7892 217.351 26.5825 140.387 26.5825C63.4236 26.5825 1.03235 87.7892 1.03235 163.291C1.03235 238.794 63.4236 300 140.387 300Z" fill="#7510F7"/>
<path d="M280.317 26.5825H1.03235V300H280.317V26.5825Z" fill="#7510F7"/>
</g>
<mask id="mask1_5687_412" style="mask-type:alpha" maskUnits="userSpaceOnUse" x="-13" y="-19" width="307" height="319">
<path d="M-12.9032 163.291V-18.9873H293.677V163.291H279.742C279.742 238.793 217.351 300 140.387 300C63.4236 300 1.03229 238.793 1.03229 163.291H-12.9032Z" fill="white"/>
</mask>
<g mask="url(#mask1_5687_412)">
<mask id="mask2_5687_412" style="mask-type:alpha" maskUnits="userSpaceOnUse" x="24" y="22" width="233" height="278">
<path d="M140.387 22.0254C176.303 22.0254 205.419 50.5885 205.419 85.8229L205.421 92.8475C212.011 93.9327 217.032 99.5557 217.032 106.329V122.279C217.032 129.174 211.829 134.877 205.064 135.814C202.664 158.377 188.276 177.443 168.259 186.772L168.258 207.722H172.903C219.081 207.722 256.516 244.446 256.516 289.747V300H24.2581V289.747C24.2581 244.446 61.6928 207.722 107.871 207.722H112.516L112.516 186.772C92.4987 177.443 78.1098 158.378 75.7092 135.814C68.9454 134.877 63.7419 129.174 63.7419 122.279V106.329C63.7419 99.5552 68.7641 93.932 75.3549 92.8473L75.3548 85.8229C75.3548 50.5885 104.471 22.0254 140.387 22.0254Z" fill="white"/>
</mask>
<g mask="url(#mask2_5687_412)">
<path d="M140.387 22.0254C176.303 22.0254 205.419 50.5885 205.419 85.8229L205.421 92.8475C212.011 93.9327 217.032 99.5557 217.032 106.329V122.279C217.032 129.174 211.829 134.877 205.064 135.814C202.664 158.377 188.276 177.443 168.259 186.772L168.258 207.722H172.903C219.081 207.722 256.516 244.446 256.516 289.747V300H24.2581V289.747C24.2581 244.446 61.6928 207.722 107.871 207.722H112.516L112.516 186.772C92.4987 177.443 78.1098 158.378 75.7092 135.814C68.9454 134.877 63.7419 129.174 63.7419 122.279V106.329C63.7419 99.5552 68.7641 93.932 75.3549 92.8473L75.3548 85.8229C75.3548 50.5885 104.471 22.0254 140.387 22.0254Z" fill="#D0C6AC"/>
<path d="M294.689 22.0254H-12.9032V300.956H294.689V22.0254Z" fill="#FFDBB4"/>
<path fill-rule="evenodd" clip-rule="evenodd" d="M75.3549 129.114C75.3549 164.348 104.471 192.912 140.387 192.912C176.303 192.912 205.419 164.348 205.419 129.114V138.228C205.419 173.462 176.303 202.025 140.387 202.025C104.471 202.025 75.3549 173.462 75.3549 138.228V129.114Z" fill="black" fill-opacity="0.1"/>
</g>
<mask id="mask3_5687_412" style="mask-type:alpha" maskUnits="userSpaceOnUse" x="24" y="189" width="233" height="111">
<path d="M168.26 189.575C189.279 191.882 205.419 198.225 205.419 214.645L205.412 214.151C235.442 226.595 256.516 255.756 256.516 289.746V300H24.2581V289.746C24.2581 255.756 45.3326 226.595 75.3623 214.151C75.6807 198.097 91.7077 191.859 112.516 189.574L112.516 211.139C112.516 226.24 124.994 238.481 140.387 238.481C155.78 238.481 168.258 226.24 168.258 211.139L168.26 189.575Z" fill="white"/>
</mask>
<g mask="url(#mask3_5687_412)">
<path d="M168.26 189.575C189.279 191.882 205.419 198.225 205.419 214.645L205.412 214.151C235.442 226.595 256.516 255.756 256.516 289.746V300H24.2581V289.746C24.2581 255.756 45.3326 226.595 75.3623 214.151C75.6807 198.097 91.7077 191.859 112.516 189.574L112.516 211.139C112.516 226.24 124.994 238.481 140.387 238.481C155.78 238.481 168.258 226.24 168.258 211.139L168.26 189.575Z" fill="#B7C1DB"/>
<path d="M294.827 174.684H-12.9032V300H294.827V174.684Z" fill="#293347"/>
<path fill-rule="evenodd" clip-rule="evenodd" d="M105.548 245.019L105.548 300H97.4193L97.418 240.93C99.9775 242.422 102.699 243.79 105.548 245.019ZM183.357 240.929L183.355 286.899C183.355 289.101 181.535 290.886 179.29 290.886C177.046 290.886 175.226 289.101 175.226 286.899L175.227 245.018C178.076 243.79 180.797 242.422 183.357 240.929Z" fill="#F4F4F4"/>
<path fill-rule="evenodd" clip-rule="evenodd" d="M188.043 189.179C205.523 192.422 217.613 198.883 217.613 211.49C217.613 233.947 179.247 252.152 140.387 252.152C101.528 252.152 63.1613 233.947 63.1613 211.49C63.1613 198.883 75.251 192.422 92.7312 189.179C82.1795 192.994 75.3548 199.41 75.3548 210.088C75.3548 233.319 107.663 252.152 140.387 252.152C173.111 252.152 205.419 233.319 205.419 210.088C205.419 199.633 198.877 193.264 188.698 189.421L188.043 189.179Z" fill="black" fill-opacity="0.16"/>
</g>
<mask id="mask4_5687_412" style="mask-type:alpha" maskUnits="userSpaceOnUse" x="118" y="148" width="45" height="23">
<path d="M118.459 150.906C119.688 161.719 129.037 170.127 140.387 170.127C151.773 170.127 161.144 161.667 162.326 150.805C162.421 149.931 161.426 148.481 160.179 148.481C142.882 148.481 129.631 148.481 120.746 148.481C119.492 148.481 118.337 149.824 118.459 150.906Z" fill="white"/>
</mask>
<g mask="url(#mask4_5687_412)">
<path d="M118.459 150.906C119.688 161.719 129.037 170.127 140.387 170.127C151.773 170.127 161.144 161.667 162.326 150.805C162.421 149.931 161.426 148.481 160.179 148.481C142.882 148.481 129.631 148.481 120.746 148.481C119.492 148.481 118.337 149.824 118.459 150.906Z" fill="black" fill-opacity="0.7"/>
<path fill-rule="evenodd" clip-rule="evenodd" d="M128.774 135.949H153.161C156.368 135.949 158.968 138.5 158.968 141.646V148.481C158.968 151.627 156.368 154.177 153.161 154.177H128.774C125.567 154.177 122.968 151.627 122.968 148.481V141.646C122.968 138.5 125.567 135.949 128.774 135.949Z" fill="white"/>
<path d="M134.581 186.076C141.636 186.076 147.355 180.466 147.355 173.545C147.355 166.624 141.636 161.013 134.581 161.013C127.526 161.013 121.807 166.624 121.807 173.545C121.807 180.466 127.526 186.076 134.581 186.076Z" fill="#FF4F6D"/>
<path d="M146.194 186.076C153.249 186.076 158.968 180.466 158.968 173.545C158.968 166.624 153.249 161.013 146.194 161.013C139.139 161.013 133.419 166.624 133.419 173.545C133.419 180.466 139.139 186.076 146.194 186.076Z" fill="#FF4F6D"/>
</g>
<path fill-rule="evenodd" clip-rule="evenodd" d="M126.452 129.114C126.452 134.148 132.691 138.228 140.387 138.228C148.083 138.228 154.323 134.148 154.323 129.114" fill="black" fill-opacity="0.16"/>
<path fill-rule="evenodd" clip-rule="evenodd" d="M94.1215 109.117C96.2659 104.79 101.094 101.772 106.707 101.772C112.3 101.772 117.114 104.768 119.27 109.072C119.91 110.35 118.999 111.396 118.079 110.621C115.233 108.22 111.191 106.721 106.707 106.721C102.363 106.721 98.4341 108.128 95.6049 110.398C94.5705 111.228 93.4944 110.383 94.1215 109.117Z" fill="black" fill-opacity="0.6"/>
<path fill-rule="evenodd" clip-rule="evenodd" d="M161.476 109.117C163.621 104.79 168.449 101.772 174.062 101.772C179.655 101.772 184.469 104.768 186.624 109.072C187.265 110.35 186.353 111.396 185.434 110.621C182.588 108.22 178.546 106.721 174.062 106.721C169.718 106.721 165.789 108.128 162.96 110.398C161.925 111.228 160.849 110.383 161.476 109.117Z" fill="black" fill-opacity="0.6"/>
<path fill-rule="evenodd" clip-rule="evenodd" d="M106.184 81.4352C99.4405 81.7408 88.5382 86.5479 88.8191 93.2192C88.8284 93.4376 89.1553 93.5335 89.315 93.3655C92.5143 89.9941 115.23 86.5874 123.23 88.3927C123.963 88.5582 124.519 87.8495 124.055 87.3376C120.081 82.9535 112.226 81.1556 106.184 81.4352Z" fill="black" fill-opacity="0.6"/>
<path fill-rule="evenodd" clip-rule="evenodd" d="M175.752 81.4352C182.495 81.7408 193.397 86.5479 193.117 93.2192C193.107 93.4376 192.78 93.5335 192.621 93.3655C189.421 89.9941 166.706 86.5874 158.705 88.3927C157.973 88.5582 157.417 87.8495 157.88 87.3376C161.855 82.9535 169.71 81.1556 175.752 81.4352Z" fill="black" fill-opacity="0.6"/>
<mask id="mask5_5687_412" style="mask-type:alpha" maskUnits="userSpaceOnUse" x="-13" y="-19" width="307" height="319">
<path d="M293.677 -18.9873H-12.9032V300H293.677V-18.9873Z" fill="white"/>
</mask>
<g mask="url(#mask5_5687_412)">
<mask id="mask6_5687_412" style="mask-type:alpha" maskUnits="userSpaceOnUse" x="71" y="0" width="137" height="94">
<path d="M195.013 26.4917C191.808 23.2791 188.087 20.5522 184.468 17.8177C183.669 17.2149 182.857 16.6267 182.077 16.001C181.899 15.8588 180.081 14.5814 179.864 14.1112C179.34 12.9802 179.643 13.8608 179.716 12.5112C179.807 10.8045 183.354 5.98417 180.707 4.87875C179.543 4.39255 177.465 5.68641 176.348 6.11375C174.163 6.95007 171.952 7.66332 169.693 8.27833C170.775 6.16306 172.838 1.92868 168.96 3.062C165.939 3.94496 163.124 6.21504 160.088 7.283C161.092 5.66768 165.11 0.662339 161.48 0.382545C160.35 0.295396 157.063 2.37398 155.847 2.81737C152.205 4.14563 148.484 5.00413 144.659 5.6803C131.655 7.97943 116.448 7.3239 104.417 13.1319C95.1413 17.6094 85.9823 24.5569 80.6239 33.4037C75.4594 41.9309 73.5278 51.2631 72.4468 61.0345C71.6536 68.2056 71.5892 75.6182 71.9601 82.8153C72.0813 85.1733 72.3516 96.0429 75.8436 92.7511C77.5833 91.1109 77.5705 84.488 78.0087 82.2462C78.8807 77.7859 79.7201 73.3057 81.1739 68.988C83.736 61.3793 86.7583 57.8314 93.1409 52.591C97.2369 49.2285 100.113 44.6837 104.033 41.2914C105.794 39.7678 104.45 39.9264 107.281 40.1264C109.183 40.2605 111.093 40.3117 112.998 40.3607C117.407 40.473 121.822 40.4444 126.231 40.4597C135.111 40.491 143.95 40.6141 152.822 40.1581C156.764 39.9555 160.718 39.8458 164.65 39.488C166.846 39.2881 170.744 37.9071 172.552 38.9625C174.206 39.928 175.925 43.0806 177.113 44.3718C179.92 47.4232 183.267 49.7537 186.55 52.2558C193.395 57.4729 196.851 59.4685 198.929 67.6216C201 75.7444 200.42 83.2803 202.983 91.2739C203.434 92.6794 204.627 95.102 206.098 92.9305C206.371 92.5273 206.3 90.3104 206.3 89.0348C206.3 83.8857 207.629 80.0223 207.613 74.8396C207.547 59.0817 207.028 38.534 195.013 26.4917Z" fill="white"/>
</mask>
<g mask="url(#mask6_5687_412)">
<path d="M195.013 26.4917C191.808 23.2791 188.087 20.5522 184.468 17.8177C183.669 17.2149 182.857 16.6267 182.077 16.001C181.899 15.8588 180.081 14.5814 179.864 14.1112C179.34 12.9802 179.643 13.8608 179.716 12.5112C179.807 10.8045 183.354 5.98417 180.707 4.87875C179.543 4.39255 177.465 5.68641 176.348 6.11375C174.163 6.95007 171.952 7.66332 169.693 8.27833C170.775 6.16306 172.838 1.92868 168.96 3.062C165.939 3.94496 163.124 6.21504 160.088 7.283C161.092 5.66768 165.11 0.662339 161.48 0.382545C160.35 0.295396 157.063 2.37398 155.847 2.81737C152.205 4.14563 148.484 5.00413 144.659 5.6803C131.655 7.97943 116.448 7.3239 104.417 13.1319C95.1413 17.6094 85.9823 24.5569 80.6239 33.4037C75.4594 41.9309 73.5278 51.2631 72.4468 61.0345C71.6536 68.2056 71.5892 75.6182 71.9601 82.8153C72.0813 85.1733 72.3516 96.0429 75.8436 92.7511C77.5833 91.1109 77.5705 84.488 78.0087 82.2462C78.8807 77.7859 79.7201 73.3057 81.1739 68.988C83.736 61.3793 86.7583 57.8314 93.1409 52.591C97.2369 49.2285 100.113 44.6837 104.033 41.2914C105.794 39.7678 104.45 39.9264 107.281 40.1264C109.183 40.2605 111.093 40.3117 112.998 40.3607C117.407 40.473 121.822 40.4444 126.231 40.4597C135.111 40.491 143.95 40.6141 152.822 40.1581C156.764 39.9555 160.718 39.8458 164.65 39.488C166.846 39.2881 170.744 37.9071 172.552 38.9625C174.206 39.928 175.925 43.0806 177.113 44.3718C179.92 47.4232 183.267 49.7537 186.55 52.2558C193.395 57.4729 196.851 59.4685 198.929 67.6216C201 75.7444 200.42 83.2803 202.983 91.2739C203.434 92.6794 204.627 95.102 206.098 92.9305C206.371 92.5273 206.3 90.3104 206.3 89.0348C206.3 83.8857 207.629 80.0223 207.613 74.8396C207.547 59.0817 207.028 38.534 195.013 26.4917Z" fill="#1F3140"/>
<path d="M295.493 -18.9873H-13.0322V300.515H295.493V-18.9873Z" fill="#4A312C"/>
</g>
</g>
</g>
</svg>
