<svg width="177" height="230" viewBox="0 0 177 230" fill="none" xmlns="http://www.w3.org/2000/svg">
<path fill-rule="evenodd" clip-rule="evenodd" d="M111.954 38.3381C108.775 28.353 103.675 19.5157 96.4897 11.9112C94.6731 9.98754 92.6539 8.22525 91.3867 5.83243C90.5858 4.31767 89.8228 2.78198 89.0427 1.25737L88.5471 0L88.4091 0.495067C88.3444 2.98272 86.9478 4.66865 85.2094 6.24375C83.2512 8.01466 81.4297 9.93828 79.5497 11.7966L73.7679 19.4677L69.0935 28.14L65.967 36.6559L65.873 36.7877C64.1528 42.4883 63.3044 48.3503 62.8881 54.2689C62.7306 56.4943 62.9113 58.7504 63.0346 60.9868C63.2116 64.1838 63.7622 67.3254 64.5875 70.4202C67.587 81.6589 73.6752 90.9802 81.9999 98.9013C83.5454 100.373 85.2167 101.712 86.8294 103.111L87.5436 105.583L88.2077 109.421L88.5251 113.427C88.5214 114.24 88.4885 115.056 88.5361 115.867C88.5495 116.075 88.8181 116.267 88.9695 116.466L90.3173 116.944L91.72 117.495L91.4795 113.934L91.4685 110.427L91.9531 105.085L92.3047 103.922L93.3119 102.123C94.5547 101.116 95.8866 100.199 97.0183 99.0774C99.0656 97.0491 101.109 94.9925 102.942 92.7696C105.319 89.8866 107.365 86.7401 109.008 83.3658C110.105 81.1084 111.141 78.8055 111.996 76.4472C112.751 74.3684 113.218 72.1825 113.813 70.0433L113.969 69.5815C115.196 63.8082 115.402 57.9758 114.952 52.1064C114.589 47.3762 113.487 42.811 111.954 38.3381ZM87.6595 100.252C87.8475 99.3028 88.0807 98.3582 88.2504 97.405C88.0807 98.3582 87.8488 99.3028 87.6595 100.252ZM91.8311 100.907L91.0424 99.1648L91.8311 100.907L92.9896 101.906L91.8311 100.907ZM140.851 122.985C139.843 121.035 138.363 119.555 136.408 118.583C134.769 117.77 133.008 117.413 131.196 117.362C129.839 117.322 128.476 117.392 127.116 117.41C125.909 117.424 124.7 117.445 123.493 117.434C122.073 117.42 120.653 117.376 119.233 117.336C118.998 117.328 118.83 117.376 118.721 117.618C118.548 117.993 118.345 118.355 118.133 118.767L118.37 118.843C119.075 118.969 119.783 119.076 120.483 119.218C121.384 119.399 121.79 119.921 121.831 120.687C121.892 121.778 121.917 122.871 121.913 123.965C121.895 128.292 121.864 132.62 121.832 136.946C121.83 137.232 121.825 137.53 121.748 137.799C121.659 138.109 121.563 138.51 121.333 138.663C120.936 138.929 120.444 139.109 119.972 139.186C119.287 139.3 119.172 139.331 118.959 140.01L118.866 140.35C118.763 140.721 118.818 140.794 119.202 140.797C121.402 140.822 123.6 140.87 125.799 140.863C127.805 140.855 129.81 140.978 131.809 140.598C133.698 140.239 135.46 139.611 137.069 138.549C139.157 137.168 140.659 135.323 141.451 132.916C142.091 130.971 142.233 128.987 142.016 126.954C141.868 125.551 141.495 124.23 140.851 122.985ZM136.997 134.882C135.82 137.092 134.065 138.567 131.556 138.956C129.985 139.199 128.411 139.129 126.913 138.529C125.965 138.149 125.612 137.323 125.583 136.347C125.555 135.39 125.544 134.432 125.542 133.475C125.538 130.108 125.538 126.741 125.542 123.375C125.545 122.315 125.563 121.252 125.58 120.19C125.593 119.444 125.748 119.194 126.469 119.134C129.638 118.865 132.662 119.21 135.173 121.46C136.726 122.852 137.61 124.626 137.978 126.664C138.13 127.514 138.177 128.384 138.272 129.246C138.195 131.214 137.931 133.129 136.997 134.882ZM163.598 131.236C162.973 129.701 161.788 128.74 160.3 128.124C159.792 127.913 159.269 127.74 158.72 127.535L158.912 127.412C159.504 127.029 160.163 126.72 160.674 126.248C161.914 125.102 162.429 123.66 162.188 121.947C161.958 120.317 161.152 119.121 159.713 118.346C158.407 117.644 156.998 117.387 155.54 117.389C153.018 117.391 150.495 117.429 147.972 117.434C147.103 117.436 146.234 117.37 145.365 117.358C145.196 117.355 144.946 117.399 144.874 117.512C144.675 117.82 144.543 118.174 144.402 118.517C144.32 118.716 144.4 118.826 144.626 118.855C145.233 118.939 145.838 119.044 146.446 119.135C147.286 119.262 147.693 119.703 147.744 120.556L147.755 121.062C147.756 123.716 147.765 126.37 147.754 129.024C147.74 131.673 147.711 134.324 147.679 136.975C147.676 137.308 147.631 137.643 147.583 137.975C147.511 138.475 147.246 138.819 146.738 138.928L145.301 139.214C145.132 139.248 144.886 139.243 144.817 139.349C144.553 139.747 144.341 140.181 144.37 140.706L144.518 140.747L149.343 140.866L150.312 140.863C151.982 140.843 153.654 140.876 155.322 140.79C157.127 140.699 158.823 140.158 160.391 139.228C162.059 138.237 163.344 136.93 163.8 134.965C164.093 133.71 164.094 132.448 163.598 131.236ZM151.337 119.929C151.344 119.396 151.577 119.165 152.102 119.151C153.395 119.115 154.68 119.123 155.927 119.572C157.541 120.153 158.534 121.557 158.515 123.273C158.507 123.932 158.517 124.584 158.276 125.217C157.801 126.464 156.89 127.121 155.599 127.249C154.925 127.318 154.245 127.326 153.644 127.358L151.64 127.269C151.374 127.259 151.258 127.141 151.259 126.865L151.337 119.929ZM159.646 136.547C159 137.965 157.823 138.71 156.35 138.968C155.172 139.175 153.984 139.115 152.819 138.812C151.957 138.589 151.606 137.891 151.433 137.116C151.317 136.598 151.337 135.981 151.327 135.441C151.311 134.609 151.324 132.881 151.324 132.881H151.306C151.306 131.65 151.31 130.583 151.303 129.402C151.302 129.147 151.344 129.02 151.653 129.03C152.749 129.063 153.849 129.082 154.946 129.125C155.926 129.163 156.844 129.456 157.707 129.925C159.021 130.64 159.812 131.733 160.029 133.236C160.195 134.375 160.124 135.496 159.646 136.547ZM39.2898 137.875L39.313 131.179C39.3167 130.172 39.1897 129.184 38.8625 128.228C37.9604 125.597 35.4724 124.398 32.8818 125.343C31.7037 125.773 30.6477 126.424 29.6393 127.163C29.0521 127.594 29.0521 127.594 28.6273 126.98C27.4248 125.241 25.7071 124.646 23.7074 125.288C22.4146 125.701 21.2841 126.41 20.2134 127.232C20.1133 127.309 19.9119 127.394 19.8521 127.348C19.752 127.273 19.6824 127.094 19.6848 126.96L19.7581 125.77C19.7642 125.52 19.7166 125.269 19.6922 125.007C19.2087 125.176 18.8229 125.344 18.4189 125.443C17.17 125.751 15.9125 126.034 14.6563 126.323C14.3523 126.394 14.0313 126.486 14.002 126.838C13.9714 127.184 14.3023 127.242 14.5587 127.345C15.0983 127.565 15.6342 127.797 16.1677 128.034C16.6157 128.233 16.783 128.594 16.7805 129.079C16.772 131.155 16.7854 133.227 16.7732 135.302C16.7683 136.146 16.7293 136.988 16.6914 137.832C16.6572 138.579 16.4045 138.892 15.6867 139.081C15.3058 139.182 14.9188 139.249 14.5355 139.34C14.4512 139.36 14.3072 139.414 14.3059 139.456C14.2901 139.822 14.2705 140.196 14.3316 140.552C14.3438 140.616 14.7271 140.616 14.9395 140.641L15.0824 140.632C16.562 140.61 18.0416 140.587 19.5225 140.571C20.3075 140.562 21.0912 140.569 21.9433 140.569L22.0349 139.375C21.5466 139.285 21.1107 139.217 20.681 139.122C20.0108 138.975 19.7251 138.616 19.708 137.934L19.6958 136.957C19.6885 134.424 19.6787 131.892 19.6787 129.359C19.6787 128.991 19.8301 128.699 20.1512 128.478C20.8312 128.015 21.549 127.647 22.3438 127.442C24.0187 127.009 25.4715 127.61 26.1161 129.047C26.3199 129.501 26.4799 130.002 26.525 130.494C26.7619 133.034 26.6593 135.576 26.5165 138.115C26.486 138.663 26.2308 138.939 25.6949 139.073L24.435 139.342C24.3337 139.367 24.186 139.298 24.1786 139.383C24.1506 139.734 24.1664 140.273 24.1664 140.273H24.4668L28.3025 140.399C29.3537 140.397 30.406 140.525 31.4559 140.552C31.6439 140.556 31.8111 140.584 31.8221 140.365C31.8392 140.018 31.8246 139.691 31.8087 139.344L31.6085 139.308L30.5281 139.063C29.7992 138.89 29.5478 138.61 29.5453 137.866C29.5368 136.033 29.5612 134.2 29.5453 132.368C29.5368 131.32 29.4965 130.272 29.4293 129.226C29.411 128.948 29.4538 128.765 29.6735 128.609C30.3205 128.143 31.0201 127.785 31.7879 127.581C34.1502 126.953 36.084 128.259 36.2061 130.716C36.3257 133.086 36.2756 135.464 36.2573 137.838C36.2512 138.664 35.9802 138.914 35.1733 139.136L34.8949 139.209C34.0684 139.408 34.0757 139.408 34.1246 140.294C34.1404 140.571 34.2161 140.642 34.5091 140.635C36.1926 140.597 37.8761 140.587 39.5596 140.572C40.2482 140.566 40.9367 140.572 41.6863 140.572L41.8389 139.419C41.1809 139.243 40.5741 139.113 39.9881 138.919C39.4705 138.742 39.2874 138.427 39.2898 137.875ZM97.2649 127.726C97.9583 127.077 97.9632 126.22 97.7691 125.268C97.2197 125.848 96.6044 126.115 95.9025 126.166C94.9612 126.233 94.037 126.151 93.1605 125.773C90.7897 124.746 88.4555 124.818 86.1286 125.945C84.1717 126.891 82.968 128.365 82.8471 130.6C82.7702 132.033 83.0363 133.388 83.9837 134.528C84.5514 135.21 85.2802 135.652 86.1018 135.957C86.4558 136.089 86.4827 136.259 86.186 136.487C85.9687 136.656 85.738 136.808 85.506 136.955C85.0104 137.269 84.5111 137.579 84.0093 137.883C83.7151 138.063 83.615 138.292 83.7114 138.643C83.9934 139.675 84.7198 140.271 85.6281 140.706L85.959 140.939L85.6696 141.231C84.7796 141.959 83.8543 142.646 83.0022 143.418C82.2868 144.067 82.056 144.936 82.2721 145.896C82.7079 147.811 83.9666 148.995 85.7526 149.54C88.8743 150.493 91.8054 149.946 94.4778 148.08C96.0624 146.973 97.199 145.532 97.5444 143.55C97.9314 141.322 96.7045 139.388 94.5083 138.989C93.0555 138.723 91.5686 138.647 90.0987 138.477C89.4126 138.398 88.7168 138.351 88.049 138.193C87.4813 138.057 87.1993 137.59 87.2518 137.135C87.3043 136.686 87.7767 136.269 88.3176 136.226C89.4065 136.137 90.4735 135.966 91.477 135.503C94.1359 134.276 95.3702 132.129 95.0613 129.237C95.021 128.848 94.9331 128.464 94.8538 128.01C95.7047 128.155 96.5751 128.373 97.2649 127.726ZM89.1965 141.294C90.2782 141.326 91.5088 141.393 92.6978 141.744C93.7441 142.052 94.6047 142.592 94.8587 143.77C95.1651 145.194 94.4863 146.61 93.1202 147.371C91.8408 148.083 90.4515 148.142 89.0427 147.995C87.8366 147.87 86.7513 147.449 85.882 146.55C84.7369 145.366 84.7308 143.728 85.8772 142.548C86.9014 141.494 87.4496 141.276 89.1965 141.294ZM91.9031 132.72C91.2731 134.753 89.4395 135.034 88.0026 134.384C86.7781 133.831 86.2446 132.742 85.9651 131.499C85.8564 131.022 85.8308 130.525 85.7673 130.036C85.7929 129.336 85.9077 128.663 86.2068 128.033C87.1236 126.091 89.376 126.206 90.6225 127.086C91.1572 127.462 91.5295 127.975 91.7627 128.582C92.2803 129.941 92.3328 131.327 91.9031 132.72ZM80.4641 139.201C80.0307 139.131 79.5949 139.04 79.1737 138.911C78.4314 138.682 78.3411 138.541 78.3326 137.749C78.3106 135.542 78.2959 133.336 78.2715 131.13C78.2593 130.137 78.1421 129.158 77.8406 128.21C77.047 125.71 74.6164 124.368 72.1846 125.105C70.8368 125.515 69.6795 126.278 68.6015 127.173L68.2084 127.477L68.2096 127.07C68.2352 126.6 68.2853 126.131 68.2816 125.662C68.2792 125.417 68.1864 125.171 68.1412 124.955C67.222 125.235 66.3979 125.515 65.5568 125.73C64.7132 125.944 63.8525 126.089 62.9992 126.264C62.5756 126.35 62.2643 126.609 62.2716 126.903C62.2826 127.318 62.6232 127.398 62.921 127.523C63.4606 127.746 63.999 127.971 64.5325 128.21C64.9134 128.381 65.0685 128.699 65.0648 129.111C65.0379 131.98 65.0208 134.849 64.9793 137.718C64.9671 138.625 64.7401 138.864 63.8562 139.063L63.4704 139.141C62.6525 139.282 62.6293 139.316 62.6854 140.186L62.6903 140.331C62.6805 140.665 62.8258 140.774 63.1677 140.77C65.3407 140.744 67.515 140.732 69.688 140.741C70.6195 140.744 70.7196 140.67 70.7001 139.705L70.6561 139.29C70.1238 139.2 69.6147 139.135 69.1167 139.024C68.5954 138.907 68.4086 138.691 68.3598 138.157C68.3146 137.668 68.2999 137.172 68.2951 136.679C68.2706 134.424 68.2511 132.169 68.2401 129.916C68.2377 129.348 68.3414 128.821 68.8591 128.455C69.644 127.902 70.5035 127.582 71.4533 127.517C73.3919 127.382 74.8655 128.541 74.9704 130.491C75.0998 132.896 75.0608 135.31 75.0913 137.72C75.0937 137.9 75.062 138.081 75.0376 138.259C74.9912 138.611 74.8203 138.876 74.4663 138.967C74.1208 139.058 73.7704 139.14 73.4176 139.194C72.8914 139.273 72.8804 139.269 72.8401 139.805L72.8536 140.165C72.9158 140.789 72.917 140.77 73.5421 140.764C75.6443 140.747 77.7453 140.736 79.8464 140.738C80.7253 140.741 80.7876 140.699 80.7949 139.785L80.7925 139.568C80.8059 139.334 80.7021 139.239 80.4641 139.201ZM109.827 125.257C107.623 124.714 105.533 125.118 103.548 126.153C101.619 127.16 100.33 128.715 99.8396 130.863C99.3439 133.034 99.5807 135.152 100.532 137.168C101.151 138.477 102.103 139.489 103.399 140.147C106.434 141.689 110.147 140.989 112.527 138.927C114.406 137.3 115.096 135.134 115.138 132.453C115.112 132.184 115.086 131.667 115.015 131.155C114.616 128.236 112.613 125.944 109.827 125.257ZM111.496 136.531C110.911 138.854 108.92 139.886 106.674 139.088C105.527 138.682 104.67 137.904 104.094 136.854C102.768 134.44 102.513 131.874 103.268 129.241C103.771 127.487 105.201 126.528 106.903 126.648C108.424 126.756 109.594 127.492 110.452 128.741C111.357 130.058 111.706 131.557 111.799 133.131C111.814 133.384 111.801 133.636 111.801 133.89L111.908 133.902C111.774 134.78 111.711 135.675 111.496 136.531ZM54.4059 125.219C52.0876 124.684 49.9158 125.212 47.9039 126.401C46.1642 127.428 45.0398 128.962 44.6089 130.967C44.2048 132.84 44.3696 134.682 45.0276 136.476C45.4281 137.569 46.0348 138.531 46.9248 139.281C48.7987 140.859 50.9888 141.258 53.3194 140.818C55.2922 140.445 57.0258 139.561 58.2856 137.907C59.4649 136.36 59.9142 134.584 59.9606 132.659C59.891 132.05 59.8739 131.429 59.7457 130.834C59.1085 127.865 57.3871 125.905 54.4059 125.219ZM56.2969 136.524C55.7317 138.834 53.7088 139.892 51.4784 139.094C50.0464 138.581 49.1137 137.523 48.524 136.167C47.5791 133.988 47.3862 131.721 47.9979 129.423C48.4667 127.666 49.8791 126.371 52.0412 126.682C53.3682 126.871 54.4035 127.555 55.175 128.642C56.2176 130.109 56.5606 131.789 56.6082 133.553V133.914L56.6961 133.928C56.568 134.795 56.5045 135.677 56.2969 136.524Z" fill="#4FAA41"/>
<path d="M29.88 190.872V216H24.84V199.656L18.108 216H14.292L7.524 199.656V216H2.484V190.872H8.208L16.2 209.556L24.192 190.872H29.88ZM43.7189 216.324C41.7989 216.324 40.0709 215.904 38.5349 215.064C36.9989 214.2 35.7869 212.988 34.8989 211.428C34.0349 209.868 33.6029 208.068 33.6029 206.028C33.6029 203.988 34.0469 202.188 34.9349 200.628C35.8469 199.068 37.0829 197.868 38.6429 197.028C40.2029 196.164 41.9429 195.732 43.8629 195.732C45.7829 195.732 47.5229 196.164 49.0829 197.028C50.6429 197.868 51.8669 199.068 52.7549 200.628C53.6669 202.188 54.1229 203.988 54.1229 206.028C54.1229 208.068 53.6549 209.868 52.7189 211.428C51.8069 212.988 50.5589 214.2 48.9749 215.064C47.4149 215.904 45.6629 216.324 43.7189 216.324ZM43.7189 211.932C44.6309 211.932 45.4829 211.716 46.2749 211.284C47.0909 210.828 47.7389 210.156 48.2189 209.268C48.6989 208.38 48.9389 207.3 48.9389 206.028C48.9389 204.132 48.4349 202.68 47.4269 201.672C46.4429 200.64 45.2309 200.124 43.7909 200.124C42.3509 200.124 41.1389 200.64 40.1549 201.672C39.1949 202.68 38.7149 204.132 38.7149 206.028C38.7149 207.924 39.1829 209.388 40.1189 210.42C41.0789 211.428 42.2789 211.932 43.7189 211.932ZM68.8719 195.768C71.2479 195.768 73.1679 196.524 74.6319 198.036C76.0959 199.524 76.8279 201.612 76.8279 204.3V216H71.7879V204.984C71.7879 203.4 71.3919 202.188 70.5999 201.348C69.8079 200.484 68.7279 200.052 67.3599 200.052C65.9679 200.052 64.8639 200.484 64.0479 201.348C63.2559 202.188 62.8599 203.4 62.8599 204.984V216H57.8199V196.056H62.8599V198.54C63.5319 197.676 64.3839 197.004 65.4159 196.524C66.4719 196.02 67.6239 195.768 68.8719 195.768ZM89.4327 195.732C90.9207 195.732 92.2287 196.032 93.3567 196.632C94.4847 197.208 95.3727 197.964 96.0207 198.9V196.056H101.097V216.144C101.097 217.992 100.725 219.636 99.9807 221.076C99.2367 222.54 98.1207 223.692 96.6327 224.532C95.1447 225.396 93.3447 225.828 91.2327 225.828C88.4007 225.828 86.0727 225.168 84.2487 223.848C82.4487 222.528 81.4287 220.728 81.1887 218.448H86.1927C86.4567 219.36 87.0207 220.08 87.8847 220.608C88.7727 221.16 89.8407 221.436 91.0887 221.436C92.5527 221.436 93.7407 220.992 94.6527 220.104C95.5647 219.24 96.0207 217.92 96.0207 216.144V213.048C95.3727 213.984 94.4727 214.764 93.3207 215.388C92.1927 216.012 90.8967 216.324 89.4327 216.324C87.7527 216.324 86.2167 215.892 84.8247 215.028C83.4327 214.164 82.3287 212.952 81.5127 211.392C80.7207 209.808 80.3247 207.996 80.3247 205.956C80.3247 203.94 80.7207 202.152 81.5127 200.592C82.3287 199.032 83.4207 197.832 84.7887 196.992C86.1807 196.152 87.7287 195.732 89.4327 195.732ZM96.0207 206.028C96.0207 204.804 95.7807 203.76 95.3007 202.896C94.8207 202.008 94.1727 201.336 93.3567 200.88C92.5407 200.4 91.6647 200.16 90.7287 200.16C89.7927 200.16 88.9287 200.388 88.1367 200.844C87.3447 201.3 86.6967 201.972 86.1927 202.86C85.7127 203.724 85.4727 204.756 85.4727 205.956C85.4727 207.156 85.7127 208.212 86.1927 209.124C86.6967 210.012 87.3447 210.696 88.1367 211.176C88.9527 211.656 89.8167 211.896 90.7287 211.896C91.6647 211.896 92.5407 211.668 93.3567 211.212C94.1727 210.732 94.8207 210.06 95.3007 209.196C95.7807 208.308 96.0207 207.252 96.0207 206.028ZM114.875 216.324C112.955 216.324 111.227 215.904 109.691 215.064C108.155 214.2 106.943 212.988 106.055 211.428C105.191 209.868 104.759 208.068 104.759 206.028C104.759 203.988 105.203 202.188 106.091 200.628C107.003 199.068 108.239 197.868 109.799 197.028C111.359 196.164 113.099 195.732 115.019 195.732C116.939 195.732 118.679 196.164 120.239 197.028C121.799 197.868 123.023 199.068 123.911 200.628C124.823 202.188 125.279 203.988 125.279 206.028C125.279 208.068 124.811 209.868 123.875 211.428C122.963 212.988 121.715 214.2 120.131 215.064C118.571 215.904 116.819 216.324 114.875 216.324ZM114.875 211.932C115.787 211.932 116.639 211.716 117.431 211.284C118.247 210.828 118.895 210.156 119.375 209.268C119.855 208.38 120.095 207.3 120.095 206.028C120.095 204.132 119.591 202.68 118.583 201.672C117.599 200.64 116.387 200.124 114.947 200.124C113.507 200.124 112.295 200.64 111.311 201.672C110.351 202.68 109.871 204.132 109.871 206.028C109.871 207.924 110.339 209.388 111.275 210.42C112.235 211.428 113.435 211.932 114.875 211.932ZM137.76 190.872C140.4 190.872 142.716 191.388 144.708 192.42C146.724 193.452 148.272 194.928 149.352 196.848C150.456 198.744 151.008 200.952 151.008 203.472C151.008 205.992 150.456 208.2 149.352 210.096C148.272 211.968 146.724 213.42 144.708 214.452C142.716 215.484 140.4 216 137.76 216H128.976V190.872H137.76ZM137.58 211.716C140.22 211.716 142.26 210.996 143.7 209.556C145.14 208.116 145.86 206.088 145.86 203.472C145.86 200.856 145.14 198.816 143.7 197.352C142.26 195.864 140.22 195.12 137.58 195.12H134.016V211.716H137.58ZM159.821 198.972C160.469 198.012 161.357 197.232 162.485 196.632C163.637 196.032 164.945 195.732 166.409 195.732C168.113 195.732 169.649 196.152 171.017 196.992C172.409 197.832 173.501 199.032 174.293 200.592C175.109 202.128 175.517 203.916 175.517 205.956C175.517 207.996 175.109 209.808 174.293 211.392C173.501 212.952 172.409 214.164 171.017 215.028C169.649 215.892 168.113 216.324 166.409 216.324C164.921 216.324 163.613 216.036 162.485 215.46C161.381 214.86 160.493 214.092 159.821 213.156V216H154.781V189.36H159.821V198.972ZM170.369 205.956C170.369 204.756 170.117 203.724 169.613 202.86C169.133 201.972 168.485 201.3 167.669 200.844C166.877 200.388 166.013 200.16 165.077 200.16C164.165 200.16 163.301 200.4 162.485 200.88C161.693 201.336 161.045 202.008 160.541 202.896C160.061 203.784 159.821 204.828 159.821 206.028C159.821 207.228 160.061 208.272 160.541 209.16C161.045 210.048 161.693 210.732 162.485 211.212C163.301 211.668 164.165 211.896 165.077 211.896C166.013 211.896 166.877 211.656 167.669 211.176C168.485 210.696 169.133 210.012 169.613 209.124C170.117 208.236 170.369 207.18 170.369 205.956Z" fill="#4C4C4C"/>
</svg>
