<svg width="152" height="239" viewBox="0 0 152 239" fill="none" xmlns="http://www.w3.org/2000/svg">
<path d="M36.1243 225H31.0843L19.6723 207.756V225H14.6323V199.836H19.6723L31.0843 217.116V199.836H36.1243V225ZM49.961 225.324C48.041 225.324 46.313 224.904 44.777 224.064C43.241 223.2 42.029 221.988 41.141 220.428C40.277 218.868 39.845 217.068 39.845 215.028C39.845 212.988 40.289 211.188 41.177 209.628C42.089 208.068 43.325 206.868 44.885 206.028C46.445 205.164 48.185 204.732 50.105 204.732C52.025 204.732 53.765 205.164 55.325 206.028C56.885 206.868 58.109 208.068 58.997 209.628C59.909 211.188 60.365 212.988 60.365 215.028C60.365 217.068 59.897 218.868 58.961 220.428C58.049 221.988 56.801 223.2 55.217 224.064C53.657 224.904 51.905 225.324 49.961 225.324ZM49.961 220.932C50.873 220.932 51.725 220.716 52.517 220.284C53.333 219.828 53.981 219.156 54.461 218.268C54.941 217.38 55.181 216.3 55.181 215.028C55.181 213.132 54.677 211.68 53.669 210.672C52.685 209.64 51.473 209.124 50.033 209.124C48.593 209.124 47.381 209.64 46.397 210.672C45.437 211.68 44.957 213.132 44.957 215.028C44.957 216.924 45.425 218.388 46.361 219.42C47.321 220.428 48.521 220.932 49.961 220.932ZM62.766 214.956C62.766 212.94 63.162 211.152 63.954 209.592C64.77 208.032 65.874 206.832 67.266 205.992C68.658 205.152 70.206 204.732 71.91 204.732C73.206 204.732 74.442 205.02 75.618 205.596C76.794 206.148 77.73 206.892 78.426 207.828V198.36H83.538V225H78.426V222.048C77.802 223.032 76.926 223.824 75.798 224.424C74.67 225.024 73.362 225.324 71.874 225.324C70.194 225.324 68.658 224.892 67.266 224.028C65.874 223.164 64.77 221.952 63.954 220.392C63.162 218.808 62.766 216.996 62.766 214.956ZM78.462 215.028C78.462 213.804 78.222 212.76 77.742 211.896C77.262 211.008 76.614 210.336 75.798 209.88C74.982 209.4 74.106 209.16 73.17 209.16C72.234 209.16 71.37 209.388 70.578 209.844C69.786 210.3 69.138 210.972 68.634 211.86C68.154 212.724 67.914 213.756 67.914 214.956C67.914 216.156 68.154 217.212 68.634 218.124C69.138 219.012 69.786 219.696 70.578 220.176C71.394 220.656 72.258 220.896 73.17 220.896C74.106 220.896 74.982 220.668 75.798 220.212C76.614 219.732 77.262 219.06 77.742 218.196C78.222 217.308 78.462 216.252 78.462 215.028ZM107 214.596C107 215.316 106.952 215.964 106.856 216.54H92.2764C92.3964 217.98 92.9004 219.108 93.7884 219.924C94.6764 220.74 95.7684 221.148 97.0644 221.148C98.9364 221.148 100.268 220.344 101.06 218.736H106.496C105.92 220.656 104.816 222.24 103.184 223.488C101.552 224.712 99.5484 225.324 97.1724 225.324C95.2524 225.324 93.5244 224.904 91.9884 224.064C90.4764 223.2 89.2884 221.988 88.4244 220.428C87.5844 218.868 87.1644 217.068 87.1644 215.028C87.1644 212.964 87.5844 211.152 88.4244 209.592C89.2644 208.032 90.4404 206.832 91.9524 205.992C93.4644 205.152 95.2044 204.732 97.1724 204.732C99.0684 204.732 100.76 205.14 102.248 205.956C103.76 206.772 104.924 207.936 105.74 209.448C106.58 210.936 107 212.652 107 214.596ZM101.78 213.156C101.756 211.86 101.288 210.828 100.376 210.06C99.4644 209.268 98.3484 208.872 97.0284 208.872C95.7804 208.872 94.7244 209.256 93.8604 210.024C93.0204 210.768 92.5044 211.812 92.3124 213.156H101.78ZM113.235 202.68C112.323 202.68 111.567 202.404 110.967 201.852C110.391 201.276 110.103 200.568 110.103 199.728C110.103 198.888 110.391 198.192 110.967 197.64C111.567 197.064 112.323 196.776 113.235 196.776C114.123 196.776 114.855 197.064 115.431 197.64C116.007 198.192 116.295 198.888 116.295 199.728C116.295 200.568 116.007 201.276 115.431 201.852C114.855 202.404 114.123 202.68 113.235 202.68ZM115.719 228.276C115.719 230.484 115.167 232.068 114.063 233.028C112.983 234.012 111.423 234.504 109.383 234.504H107.151V230.22H108.591C109.359 230.22 109.899 230.064 110.211 229.752C110.523 229.464 110.679 228.984 110.679 228.312V205.056H115.719V228.276ZM128.331 225.324C126.699 225.324 125.235 225.036 123.939 224.46C122.643 223.86 121.611 223.056 120.843 222.048C120.099 221.04 119.691 219.924 119.619 218.7H124.695C124.791 219.468 125.163 220.104 125.811 220.608C126.483 221.112 127.311 221.364 128.295 221.364C129.255 221.364 129.999 221.172 130.527 220.788C131.079 220.404 131.355 219.912 131.355 219.312C131.355 218.664 131.019 218.184 130.347 217.872C129.699 217.536 128.655 217.176 127.215 216.792C125.727 216.432 124.503 216.06 123.543 215.676C122.607 215.292 121.791 214.704 121.095 213.912C120.423 213.12 120.087 212.052 120.087 210.708C120.087 209.604 120.399 208.596 121.023 207.684C121.671 206.772 122.583 206.052 123.759 205.524C124.959 204.996 126.363 204.732 127.971 204.732C130.347 204.732 132.243 205.332 133.659 206.532C135.075 207.708 135.855 209.304 135.999 211.32H131.175C131.103 210.528 130.767 209.904 130.167 209.448C129.591 208.968 128.811 208.728 127.827 208.728C126.915 208.728 126.207 208.896 125.703 209.232C125.223 209.568 124.983 210.036 124.983 210.636C124.983 211.308 125.319 211.824 125.991 212.184C126.663 212.52 127.707 212.868 129.123 213.228C130.563 213.588 131.751 213.96 132.687 214.344C133.623 214.728 134.427 215.328 135.099 216.144C135.795 216.936 136.155 217.992 136.179 219.312C136.179 220.464 135.855 221.496 135.207 222.408C134.583 223.32 133.671 224.04 132.471 224.568C131.295 225.072 129.915 225.324 128.331 225.324Z" fill="#4C4C4C"/>
<g clip-path="url(#clip0_5687_520)">
<path d="M69.0929 1.90415C73.2217 -0.215537 78.5995 -0.225112 82.7248 1.90415C103.479 12.4222 124.239 22.9238 144.989 33.4483C148.892 35.4201 151.503 39.3159 151.463 43.3494V106.63C151.492 110.831 148.623 114.82 144.506 116.747C123.82 127.207 103.145 137.68 82.4632 148.14C78.249 150.301 72.7633 150.135 68.6807 147.796C62.4792 144.572 56.2669 141.363 50.0648 138.142C48.7975 137.464 47.3688 136.925 46.4739 135.823C47.265 134.867 48.6794 134.747 49.8288 134.33C52.4174 133.591 54.795 132.406 57.1731 131.256C57.7745 130.887 58.5087 131.029 59.0851 131.359C64.3882 134.086 69.6444 136.893 74.9653 139.594C76.1004 140.181 77.2497 139.401 78.2199 138.916C98.5189 128.626 118.843 118.375 139.138 108.082C139.89 107.757 140.306 107.041 140.245 106.303C140.259 85.4276 140.248 64.5489 140.252 43.6739C140.338 42.8356 139.797 42.0648 138.952 41.7217C118.338 31.3095 97.7349 20.8813 77.1246 10.4664C76.7675 10.2462 76.3445 10.1281 75.9112 10.1275C75.4778 10.1269 75.0544 10.2439 74.6966 10.4632C54.0863 20.8813 33.4866 31.3191 12.8763 41.7308C12.0342 42.0744 11.469 42.8324 11.5692 43.6739C11.5728 64.5489 11.5692 85.4276 11.5692 106.306C11.5335 106.666 11.6218 107.028 11.8222 107.342C12.0226 107.656 12.3255 107.908 12.6901 108.063C18.1901 110.86 23.6971 113.638 29.2007 116.426C32.3011 117.922 36.1079 118.812 39.5239 117.665C42.5384 116.695 44.6514 113.936 44.5939 111.065C44.6224 90.3122 44.5797 69.5558 44.6153 48.8058C44.5399 47.8845 45.5143 47.1233 46.513 47.21C49.1557 47.1941 51.8019 47.1781 54.4445 47.2164C55.5476 47.1941 56.3067 48.1861 56.1703 49.1143C56.1596 69.9989 56.1987 90.884 56.1525 111.769C56.1596 117.335 53.6101 123.391 47.8699 126.114C40.7984 129.4 32.058 128.703 25.0718 125.553C19.0239 122.845 13.2523 119.65 7.31171 116.749C3.18348 114.833 0.329117 110.828 0.358176 106.631V43.3494C0.314884 39.2324 3.02928 35.2659 7.05373 33.3228C27.7358 22.8542 48.4143 12.3776 69.0929 1.90415Z" fill="#8CC84B"/>
<path d="M87.1359 45.7392C96.1562 45.2185 105.813 45.4307 113.93 49.4164C120.215 52.4706 123.699 58.8807 123.81 65.1429C123.634 65.9876 122.65 66.4536 121.751 66.3956C119.133 66.3924 116.516 66.4275 113.899 66.3796C112.788 66.4179 112.143 65.4998 112.004 64.6195C111.252 61.6233 109.43 58.6557 106.286 57.2105C101.459 55.0429 95.862 55.152 90.5987 55.1972C86.7563 55.3802 82.6245 55.6786 79.3693 57.7052C76.8702 59.2403 76.1111 62.3392 77.003 64.835C77.844 66.627 80.1503 67.2052 82.0374 67.7381C92.9081 70.2881 104.427 70.0344 115.091 73.3903C119.505 74.7583 123.824 77.4179 125.335 81.5637C127.312 87.12 126.445 93.7615 122.038 98.2222C118.463 101.893 113.257 103.891 108.065 104.976C101.158 106.357 93.9898 106.392 86.9752 105.779C80.3792 105.105 73.5153 103.55 68.4233 99.5195C64.0691 96.1285 61.9425 90.845 62.1536 85.7456C62.204 84.8844 63.16 84.2839 64.0798 84.3546C66.7153 84.3355 69.3509 84.3291 71.9864 84.3578C73.0391 84.2903 73.8195 85.1062 73.8735 85.9961C74.3598 88.8509 75.556 91.8472 78.3314 93.5397C83.6879 96.6392 90.4089 96.4269 96.5423 96.5136C101.624 96.3115 107.328 96.2503 111.474 93.2381C113.662 91.52 114.31 88.6456 113.719 86.1727C113.078 84.0849 110.643 83.1121 108.552 82.4759C97.8209 79.4312 86.1728 80.536 75.5453 77.0929C71.2308 75.7254 67.0587 73.1397 65.4011 69.1642C63.0882 63.5376 64.148 56.578 69.0176 52.2679C73.7655 47.9807 80.6194 46.3297 87.1359 45.7387V45.7392Z" fill="#8CC84B"/>
</g>
<defs>
<clipPath id="clip0_5687_520">
<rect width="151.854" height="150" fill="white"/>
</clipPath>
</defs>
</svg>
