<svg width="152" height="239" viewBox="0 0 152 239" fill="none" xmlns="http://www.w3.org/2000/svg">
<path d="M31.944 207.648C31.944 208.992 31.62 210.252 30.972 211.428C30.348 212.604 29.352 213.552 27.984 214.272C26.64 214.992 24.936 215.352 22.872 215.352H18.66V225H13.62V199.872H22.872C24.816 199.872 26.472 200.208 27.84 200.88C29.208 201.552 30.228 202.476 30.9 203.652C31.596 204.828 31.944 206.16 31.944 207.648ZM22.656 211.284C24.048 211.284 25.08 210.972 25.752 210.348C26.424 209.7 26.76 208.8 26.76 207.648C26.76 205.2 25.392 203.976 22.656 203.976H18.66V211.284H22.656ZM54.6023 205.056L42.2543 234.432H36.8903L41.2103 224.496L33.2183 205.056H38.8703L44.0183 218.988L49.2383 205.056H54.6023ZM63.1872 209.196V218.844C63.1872 219.516 63.3432 220.008 63.6552 220.32C63.9912 220.608 64.5432 220.752 65.3112 220.752H67.6512V225H64.4832C60.2352 225 58.1112 222.936 58.1112 218.808V209.196H55.7352V205.056H58.1112V200.124H63.1872V205.056H67.6512V209.196H63.1872ZM82.5082 204.768C84.0202 204.768 85.3642 205.104 86.5402 205.776C87.7162 206.424 88.6282 207.396 89.2762 208.692C89.9482 209.964 90.2842 211.5 90.2842 213.3V225H85.2442V213.984C85.2442 212.4 84.8482 211.188 84.0562 210.348C83.2642 209.484 82.1842 209.052 80.8162 209.052C79.4242 209.052 78.3202 209.484 77.5042 210.348C76.7122 211.188 76.3162 212.4 76.3162 213.984V225H71.2762V198.36H76.3162V207.54C76.9642 206.676 77.8282 206.004 78.9082 205.524C79.9882 205.02 81.1882 204.768 82.5082 204.768ZM103.933 225.324C102.013 225.324 100.285 224.904 98.749 224.064C97.213 223.2 96.001 221.988 95.113 220.428C94.249 218.868 93.817 217.068 93.817 215.028C93.817 212.988 94.261 211.188 95.149 209.628C96.061 208.068 97.297 206.868 98.857 206.028C100.417 205.164 102.157 204.732 104.077 204.732C105.997 204.732 107.737 205.164 109.297 206.028C110.857 206.868 112.081 208.068 112.969 209.628C113.881 211.188 114.337 212.988 114.337 215.028C114.337 217.068 113.869 218.868 112.933 220.428C112.021 221.988 110.773 223.2 109.189 224.064C107.629 224.904 105.877 225.324 103.933 225.324ZM103.933 220.932C104.845 220.932 105.697 220.716 106.489 220.284C107.305 219.828 107.953 219.156 108.433 218.268C108.913 217.38 109.153 216.3 109.153 215.028C109.153 213.132 108.649 211.68 107.641 210.672C106.657 209.64 105.445 209.124 104.005 209.124C102.565 209.124 101.353 209.64 100.369 210.672C99.409 211.68 98.929 213.132 98.929 215.028C98.929 216.924 99.397 218.388 100.333 219.42C101.293 220.428 102.493 220.932 103.933 220.932ZM129.086 204.768C131.462 204.768 133.382 205.524 134.846 207.036C136.31 208.524 137.042 210.612 137.042 213.3V225H132.002V213.984C132.002 212.4 131.606 211.188 130.814 210.348C130.022 209.484 128.942 209.052 127.574 209.052C126.182 209.052 125.078 209.484 124.262 210.348C123.47 211.188 123.074 212.4 123.074 213.984V225H118.034V205.056H123.074V207.54C123.746 206.676 124.598 206.004 125.63 205.524C126.686 205.02 127.838 204.768 129.086 204.768Z" fill="#4C4C4C"/>
<g clip-path="url(#clip0_5687_507)">
<path d="M75.2841 0.0424805C36.8268 0.0424832 39.2283 16.5808 39.2283 16.5808L39.2712 33.7144H75.97V38.8587H24.6945C24.6945 38.8587 0.0856934 36.0911 0.0856934 74.5713C0.0856906 113.052 21.5648 111.687 21.5648 111.687H34.3837V93.8306C34.3837 93.8306 33.6927 72.5306 55.5198 72.5306H91.9186C91.9186 72.5306 112.369 72.8584 112.369 52.9312V19.982C112.369 19.982 115.474 0.0424805 75.2841 0.0424805ZM55.0482 11.5641C58.6995 11.564 61.6506 14.4905 61.6506 18.1114C61.6506 21.7322 58.6995 24.6587 55.0482 24.6587C51.397 24.6587 48.4459 21.7322 48.4459 18.1114C48.4459 14.4905 51.397 11.5641 55.0482 11.5641Z" fill="url(#paint0_linear_5687_507)"/>
<path d="M76.3762 149.486C114.833 149.486 112.432 132.948 112.432 132.948L112.389 115.814H75.6902V110.67H126.966C126.966 110.67 151.575 113.437 151.575 74.9571C151.575 36.4768 130.095 37.8414 130.095 37.8414H117.277V55.6977C117.277 55.6977 117.968 76.9978 96.1404 76.9978H59.7416C59.7416 76.9978 39.2915 76.67 39.2915 96.5972V129.546C39.2915 129.546 36.1865 149.486 76.3762 149.486ZM96.612 137.964C92.9607 137.964 90.0096 135.038 90.0096 131.417C90.0096 127.796 92.9607 124.87 96.612 124.87C100.263 124.87 103.214 127.796 103.214 131.417C103.214 135.038 100.263 137.964 96.612 137.964Z" fill="url(#paint1_linear_5687_507)"/>
</g>
<defs>
<linearGradient id="paint0_linear_5687_507" x1="14.6441" y1="13.4845" x2="89.0942" y2="87.8116" gradientUnits="userSpaceOnUse">
<stop stop-color="#387EB8"/>
<stop offset="1" stop-color="#366994"/>
</linearGradient>
<linearGradient id="paint1_linear_5687_507" x1="60.7234" y1="60.8122" x2="140.706" y2="137.058" gradientUnits="userSpaceOnUse">
<stop stop-color="#FFE052"/>
<stop offset="1" stop-color="#FFC331"/>
</linearGradient>
<clipPath id="clip0_5687_507">
<rect width="151.854" height="150" fill="white"/>
</clipPath>
</defs>
</svg>
