<svg width="154" height="230" viewBox="0 0 154 230" fill="none" xmlns="http://www.w3.org/2000/svg">
<g clip-path="url(#clip0_5687_538)">
<path d="M77 0C57 0 44.5 13.3333 39.5 40C47 26.6667 55.75 21.6667 65.75 25C71.4556 26.9018 75.5336 32.4207 80.0475 38.53C87.4008 48.4818 95.9114 60 114.5 60C134.5 60 147 46.6667 152 20C144.5 33.3333 135.75 38.3333 125.75 35C120.044 33.0981 115.966 27.5793 111.452 21.47C104.099 11.5181 95.5886 0 77 0ZM39.5 60C19.5 60 7 73.3333 2 100C9.5 86.6667 18.25 81.6667 28.25 85C33.9556 86.9018 38.0336 92.4207 42.5475 98.53C49.9008 108.482 58.4114 120 77 120C97 120 109.5 106.667 114.5 80C107 93.3333 98.25 98.3333 88.25 95C82.5444 93.0981 78.4664 87.5793 73.9525 81.47C66.5992 71.5181 58.0886 60 39.5 60Z" fill="url(#paint0_linear_5687_538)"/>
</g>
<path d="M19.584 190.872V194.94H12.888V216H7.848V194.94H1.152V190.872H19.584ZM21.9653 205.956C21.9653 203.94 22.3613 202.152 23.1533 200.592C23.9693 199.032 25.0613 197.832 26.4293 196.992C27.8213 196.152 29.3693 195.732 31.0733 195.732C32.5613 195.732 33.8573 196.032 34.9613 196.632C36.0893 197.232 36.9893 197.988 37.6613 198.9V196.056H42.7373V216H37.6613V213.084C37.0133 214.02 36.1133 214.8 34.9613 215.424C33.8333 216.024 32.5253 216.324 31.0373 216.324C29.3573 216.324 27.8213 215.892 26.4293 215.028C25.0613 214.164 23.9693 212.952 23.1533 211.392C22.3613 209.808 21.9653 207.996 21.9653 205.956ZM37.6613 206.028C37.6613 204.804 37.4213 203.76 36.9413 202.896C36.4613 202.008 35.8133 201.336 34.9973 200.88C34.1813 200.4 33.3053 200.16 32.3693 200.16C31.4333 200.16 30.5693 200.388 29.7773 200.844C28.9853 201.3 28.3373 201.972 27.8333 202.86C27.3533 203.724 27.1133 204.756 27.1133 205.956C27.1133 207.156 27.3533 208.212 27.8333 209.124C28.3373 210.012 28.9853 210.696 29.7773 211.176C30.5933 211.656 31.4573 211.896 32.3693 211.896C33.3053 211.896 34.1813 211.668 34.9973 211.212C35.8133 210.732 36.4613 210.06 36.9413 209.196C37.4213 208.308 37.6613 207.252 37.6613 206.028ZM50.2158 193.68C49.3278 193.68 48.5838 193.404 47.9838 192.852C47.4078 192.276 47.1198 191.568 47.1198 190.728C47.1198 189.888 47.4078 189.192 47.9838 188.64C48.5838 188.064 49.3278 187.776 50.2158 187.776C51.1038 187.776 51.8358 188.064 52.4118 188.64C53.0118 189.192 53.3118 189.888 53.3118 190.728C53.3118 191.568 53.0118 192.276 52.4118 192.852C51.8358 193.404 51.1038 193.68 50.2158 193.68ZM52.6998 196.056V216H47.6598V196.056H52.6998ZM62.7193 189.36V216H57.6793V189.36H62.7193ZM95.3468 196.056L89.5148 216H84.0788L80.4428 202.068L76.8068 216H71.3348L65.4668 196.056H70.5788L74.1068 211.248L77.9228 196.056H83.2508L86.9948 211.212L90.5228 196.056H95.3468ZM100.63 193.68C99.7418 193.68 98.9978 193.404 98.3978 192.852C97.8218 192.276 97.5338 191.568 97.5338 190.728C97.5338 189.888 97.8218 189.192 98.3978 188.64C98.9978 188.064 99.7418 187.776 100.63 187.776C101.518 187.776 102.25 188.064 102.826 188.64C103.426 189.192 103.726 189.888 103.726 190.728C103.726 191.568 103.426 192.276 102.826 192.852C102.25 193.404 101.518 193.68 100.63 193.68ZM103.114 196.056V216H98.0738V196.056H103.114ZM119.145 195.768C121.521 195.768 123.441 196.524 124.905 198.036C126.369 199.524 127.101 201.612 127.101 204.3V216H122.061V204.984C122.061 203.4 121.665 202.188 120.873 201.348C120.081 200.484 119.001 200.052 117.633 200.052C116.241 200.052 115.137 200.484 114.321 201.348C113.529 202.188 113.133 203.4 113.133 204.984V216H108.093V196.056H113.133V198.54C113.805 197.676 114.657 197.004 115.689 196.524C116.745 196.02 117.897 195.768 119.145 195.768ZM130.598 205.956C130.598 203.94 130.994 202.152 131.786 200.592C132.602 199.032 133.706 197.832 135.098 196.992C136.49 196.152 138.038 195.732 139.742 195.732C141.038 195.732 142.274 196.02 143.45 196.596C144.626 197.148 145.562 197.892 146.258 198.828V189.36H151.37V216H146.258V213.048C145.634 214.032 144.758 214.824 143.63 215.424C142.502 216.024 141.194 216.324 139.706 216.324C138.026 216.324 136.49 215.892 135.098 215.028C133.706 214.164 132.602 212.952 131.786 211.392C130.994 209.808 130.598 207.996 130.598 205.956ZM146.294 206.028C146.294 204.804 146.054 203.76 145.574 202.896C145.094 202.008 144.446 201.336 143.63 200.88C142.814 200.4 141.938 200.16 141.002 200.16C140.066 200.16 139.202 200.388 138.41 200.844C137.618 201.3 136.97 201.972 136.466 202.86C135.986 203.724 135.746 204.756 135.746 205.956C135.746 207.156 135.986 208.212 136.466 209.124C136.97 210.012 137.618 210.696 138.41 211.176C139.226 211.656 140.09 211.896 141.002 211.896C141.938 211.896 142.814 211.668 143.63 211.212C144.446 210.732 145.094 210.06 145.574 209.196C146.054 208.308 146.294 207.252 146.294 206.028Z" fill="#4C4C4C"/>
<defs>
<linearGradient id="paint0_linear_5687_538" x1="-2.16667" y1="38.4" x2="143.257" y2="101.286" gradientUnits="userSpaceOnUse">
<stop stop-color="#2298BD"/>
<stop offset="1" stop-color="#0ED7B5"/>
</linearGradient>
<clipPath id="clip0_5687_538">
<rect width="150" height="120" fill="white" transform="translate(2)"/>
</clipPath>
</defs>
</svg>
